<mxfile host="app.diagrams.net" agent="Mozilla/5.0 (Windows NT 10.0; Win64; x64) AppleWebKit/537.36 (KHTML, like Gecko) Chrome/135.0.0.0 Safari/537.36" version="26.2.13">
  <diagram name="Page-1" id="GvfZ1UlpBVKliF9SVffu">
    <mxGraphModel dx="4250" dy="2727" grid="1" gridSize="10" guides="1" tooltips="1" connect="1" arrows="1" fold="1" page="1" pageScale="1" pageWidth="827" pageHeight="1169" math="0" shadow="0">
      <root>
        <mxCell id="0" />
        <mxCell id="1" parent="0" />
        <UserObject label="" plantUmlData="{&#xa;  &quot;data&quot;: &quot;@startuml\n|= Admin Login =|\nstart\n:Admin enters email &amp; password;\n:Validate credentials;\nif (Credentials valid?) then (yes)\n  :Dashboard;\nelse (no)\n  :Display \&quot;Login failed\&quot;;\n  stop\nendif\n\nfork\n  |= Monitor Book‑Exchange KPIs =|\n  :Retrieve exchange stats (books given / taken / pending);\n  :Render charts &amp; KPI cards;\n  :Show live dashboard to admin;\n  if (Drill‑down click?) then (yes)\n    :Load detailed report for selected metric;\n    :Display report;\n  endif\nfork again\n  |= Manage Academic Staff =|\n  :Fetch staff list;\n  :Show table of staff;\n  if (Action chosen? Add / Edit / Delete) then (Add)\n    :Open \&quot;Add Staff\&quot; form;\n    :Validate form;\n    if (Valid?) then (yes)\n      :Insert new staff record;\n      :Refresh table;\n    else (no)\n      :Show errors;\n    endif\n  elseif (Edit)\n    :Open \&quot;Edit Staff\&quot; form (prefilled);\n    :Validate changes;\n    :Update staff record;\n    :Refresh table;\n  elseif (Delete)\n    if (Confirm delete?) then (yes)\n      :Remove staff record;\n      :Refresh table;\n    endif\n  endif\nfork again\n  |= Manage Departments / Major Books &amp; Courses =|\n  :Select major tab;\n  :Load books &amp; courses;\n  :Display two tables (Books, Courses);\n  if (Action? Add / Edit / Delete) then\n    --&gt; reuse Add/Edit/Delete sub‑flows from \&quot;Manage Academic Staff\&quot;\n  endif\nfork again\n  |= Manage Users &amp; Roles =|\n  :Fetch user list;\n  :Show user table;\n  if (Action? Promote / Block / Delete) then (Promote)\n    if (Promote to Admin?) then (yes)\n      :Update user role;\n      :Show \&quot;Role updated\&quot;;\n    endif\n  elseif (Block)\n    if (Confirm block?) then (yes)\n      :Set user status = blocked;\n      :Show \&quot;User blocked\&quot;;\n    endif\n  elseif (Delete)\n    if (Confirm delete?) then (yes)\n      :Remove user record;\n      :Refresh table;\n    endif\n  endif\nend fork\n\nstop\n@enduml\n&quot;,&#xa;  &quot;format&quot;: &quot;svg&quot;&#xa;}" id="bQq_-DnMxq9EMiM0ephh-1">
          <mxCell style="shape=image;noLabel=1;verticalAlign=top;aspect=fixed;imageAspect=0;image=data:image/svg+xml,PHN2ZyB4bWxucz0iaHR0cDovL3d3dy53My5vcmcvMjAwMC9zdmciIHhtbG5zOnhsaW5rPSJodHRwOi8vd3d3LnczLm9yZy8xOTk5L3hsaW5rIiBjb250ZW50U3R5bGVUeXBlPSJ0ZXh0L2NzcyIgZGF0YS1kaWFncmFtLXR5cGU9IkFDVElWSVRZIiBoZWlnaHQ9Ijk3N3B4IiBwcmVzZXJ2ZUFzcGVjdFJhdGlvPSJub25lIiBzdHlsZT0id2lkdGg6MjUwNXB4O2hlaWdodDo5NzdweDtiYWNrZ3JvdW5kOiNGRkZGRkY7IiB2ZXJzaW9uPSIxLjEiIHZpZXdCb3g9IjAgMCAyNTA1IDk3NyIgd2lkdGg9IjI1MDVweCIgem9vbUFuZFBhbj0ibWFnbmlmeSI+PGRlZnMvPjxnPjxyZWN0IGZpbGw9Im5vbmUiIGhlaWdodD0iMjMuNTQ2OSIgc3R5bGU9InN0cm9rZTpub25lO3N0cm9rZS13aWR0aDoxOyIgd2lkdGg9IjI0NzIuNSIgeD0iMTUiIHk9IjExLjI1Ii8+PGVsbGlwc2UgY3g9IjE0MS41IiBjeT0iNDkuNzk2OSIgZmlsbD0iIzIyMjIyMiIgcng9IjEwIiByeT0iMTAiIHN0eWxlPSJzdHJva2U6IzIyMjIyMjtzdHJva2Utd2lkdGg6MTsiLz48cmVjdCBmaWxsPSIjRjFGMUYxIiBoZWlnaHQ9IjMyLjg0MzgiIHJ4PSIxMi41IiByeT0iMTIuNSIgc3R5bGU9InN0cm9rZTojMTgxODE4O3N0cm9rZS13aWR0aDowLjU7IiB3aWR0aD0iMTk0IiB4PSI0NC41IiB5PSI3OS43OTY5Ii8+PHRleHQgZmlsbD0iIzAwMDAwMCIgZm9udC1mYW1pbHk9InNhbnMtc2VyaWYiIGZvbnQtc2l6ZT0iMTIiIGxlbmd0aEFkanVzdD0ic3BhY2luZyIgdGV4dExlbmd0aD0iMTc0IiB4PSI1NC41IiB5PSIxMDEuMTQwNiI+QWRtaW4gZW50ZXJzIGVtYWlsICZhbXA7IHBhc3N3b3JkPC90ZXh0PjxyZWN0IGZpbGw9IiNGMUYxRjEiIGhlaWdodD0iMzIuODQzOCIgcng9IjEyLjUiIHJ5PSIxMi41IiBzdHlsZT0ic3Ryb2tlOiMxODE4MTg7c3Ryb2tlLXdpZHRoOjAuNTsiIHdpZHRoPSIxNDAiIHg9IjcxLjUiIHk9IjEzMi42NDA2Ii8+PHRleHQgZmlsbD0iIzAwMDAwMCIgZm9udC1mYW1pbHk9InNhbnMtc2VyaWYiIGZvbnQtc2l6ZT0iMTIiIGxlbmd0aEFkanVzdD0ic3BhY2luZyIgdGV4dExlbmd0aD0iMTIwIiB4PSI4MS41IiB5PSIxNTMuOTg0NCI+VmFsaWRhdGUgY3JlZGVudGlhbHM8L3RleHQ+PHBvbHlnb24gZmlsbD0iI0YxRjFGMSIgcG9pbnRzPSI5MiwxODUuNDg0NCwxOTEsMTg1LjQ4NDQsMjAzLDE5Ny40ODQ0LDE5MSwyMDkuNDg0NCw5MiwyMDkuNDg0NCw4MCwxOTcuNDg0NCw5MiwxODUuNDg0NCIgc3R5bGU9InN0cm9rZTojMTgxODE4O3N0cm9rZS13aWR0aDowLjU7Ii8+PHRleHQgZmlsbD0iIzAwMDAwMCIgZm9udC1mYW1pbHk9InNhbnMtc2VyaWYiIGZvbnQtc2l6ZT0iMTEiIGxlbmd0aEFkanVzdD0ic3BhY2luZyIgdGV4dExlbmd0aD0iOTkiIHg9IjkyIiB5PSIyMDEuOTk2MSI+Q3JlZGVudGlhbHMgdmFsaWQ/PC90ZXh0Pjx0ZXh0IGZpbGw9IiMwMDAwMDAiIGZvbnQtZmFtaWx5PSJzYW5zLXNlcmlmIiBmb250LXNpemU9IjExIiBsZW5ndGhBZGp1c3Q9InNwYWNpbmciIHRleHRMZW5ndGg9IjE2LjUiIHg9IjYzLjUiIHk9IjE5Ni4xMDk0Ij55ZXM8L3RleHQ+PHRleHQgZmlsbD0iIzAwMDAwMCIgZm9udC1mYW1pbHk9InNhbnMtc2VyaWYiIGZvbnQtc2l6ZT0iMTEiIGxlbmd0aEFkanVzdD0ic3BhY2luZyIgdGV4dExlbmd0aD0iMTEiIHg9IjIwMyIgeT0iMTk2LjEwOTQiPm5vPC90ZXh0PjxyZWN0IGZpbGw9IiNGMUYxRjEiIGhlaWdodD0iMzIuODQzOCIgcng9IjEyLjUiIHJ5PSIxMi41IiBzdHlsZT0ic3Ryb2tlOiMxODE4MTg7c3Ryb2tlLXdpZHRoOjAuNTsiIHdpZHRoPSI3NCIgeD0iMzMiIHk9IjIxOS40ODQ0Ii8+PHRleHQgZmlsbD0iIzAwMDAwMCIgZm9udC1mYW1pbHk9InNhbnMtc2VyaWYiIGZvbnQtc2l6ZT0iMTIiIGxlbmd0aEFkanVzdD0ic3BhY2luZyIgdGV4dExlbmd0aD0iNTQiIHg9IjQzIiB5PSIyNDAuODI4MSI+RGFzaGJvYXJkPC90ZXh0PjxyZWN0IGZpbGw9IiNGMUYxRjEiIGhlaWdodD0iMzIuODQzOCIgcng9IjEyLjUiIHJ5PSIxMi41IiBzdHlsZT0ic3Ryb2tlOiMxODE4MTg7c3Ryb2tlLXdpZHRoOjAuNTsiIHdpZHRoPSIxNTIiIHg9IjEzNyIgeT0iMjE5LjQ4NDQiLz48dGV4dCBmaWxsPSIjMDAwMDAwIiBmb250LWZhbWlseT0ic2Fucy1zZXJpZiIgZm9udC1zaXplPSIxMiIgbGVuZ3RoQWRqdXN0PSJzcGFjaW5nIiB0ZXh0TGVuZ3RoPSIxMzIiIHg9IjE0NyIgeT0iMjQwLjgyODEiPkRpc3BsYXkgIkxvZ2luIGZhaWxlZCI8L3RleHQ+PGVsbGlwc2UgY3g9IjIxMyIgY3k9IjI4My4zMjgxIiBmaWxsPSJub25lIiByeD0iMTEiIHJ5PSIxMSIgc3R5bGU9InN0cm9rZTojMjIyMjIyO3N0cm9rZS13aWR0aDoxOyIvPjxlbGxpcHNlIGN4PSIyMTMiIGN5PSIyODMuMzI4MSIgZmlsbD0iIzIyMjIyMiIgcng9IjYiIHJ5PSI2IiBzdHlsZT0ic3Ryb2tlOiMyMjIyMjI7c3Ryb2tlLXdpZHRoOjE7Ii8+PHJlY3QgZmlsbD0iIzU1NTU1NSIgaGVpZ2h0PSI2IiByeD0iMi41IiByeT0iMi41IiBzdHlsZT0ic3Ryb2tlOiM1NTU1NTU7c3Ryb2tlLXdpZHRoOjE7IiB3aWR0aD0iMjgwIiB4PSIyMSIgeT0iMzE0LjMyODEiLz48bGluZSBzdHlsZT0ic3Ryb2tlOiMwMDAwMDA7c3Ryb2tlLXdpZHRoOjEuNTsiIHgxPSIxNSIgeDI9IjE1IiB5MT0iMTEuMjUiIHkyPSI5NjUuMTY0MSIvPjxyZWN0IGZpbGw9IiNGMUYxRjEiIGhlaWdodD0iMzIuODQzOCIgcng9IjEyLjUiIHJ5PSIxMi41IiBzdHlsZT0ic3Ryb2tlOiMxODE4MTg7c3Ryb2tlLXdpZHRoOjAuNTsiIHdpZHRoPSIzNTAiIHg9IjMxMSIgeT0iNDM2LjEzNjciLz48dGV4dCBmaWxsPSIjMDAwMDAwIiBmb250LWZhbWlseT0ic2Fucy1zZXJpZiIgZm9udC1zaXplPSIxMiIgbGVuZ3RoQWRqdXN0PSJzcGFjaW5nIiB0ZXh0TGVuZ3RoPSIzMzAiIHg9IjMyMSIgeT0iNDU3LjQ4MDUiPlJldHJpZXZlIGV4Y2hhbmdlIHN0YXRzIChib29rcyBnaXZlbiAvIHRha2VuIC8gcGVuZGluZyk8L3RleHQ+PHJlY3QgZmlsbD0iI0YxRjFGMSIgaGVpZ2h0PSIzMi44NDM4IiByeD0iMTIuNSIgcnk9IjEyLjUiIHN0eWxlPSJzdHJva2U6IzE4MTgxODtzdHJva2Utd2lkdGg6MC41OyIgd2lkdGg9IjE3MCIgeD0iNDAxIiB5PSI1MDMuOTgwNSIvPjx0ZXh0IGZpbGw9IiMwMDAwMDAiIGZvbnQtZmFtaWx5PSJzYW5zLXNlcmlmIiBmb250LXNpemU9IjEyIiBsZW5ndGhBZGp1c3Q9InNwYWNpbmciIHRleHRMZW5ndGg9IjE1MCIgeD0iNDExIiB5PSI1MjUuMzI0MiI+UmVuZGVyIGNoYXJ0cyAmYW1wOyBLUEkgY2FyZHM8L3RleHQ+PHJlY3QgZmlsbD0iI0YxRjFGMSIgaGVpZ2h0PSIzMi44NDM4IiByeD0iMTIuNSIgcnk9IjEyLjUiIHN0eWxlPSJzdHJva2U6IzE4MTgxODtzdHJva2Utd2lkdGg6MC41OyIgd2lkdGg9IjE4OCIgeD0iMzkyIiB5PSI1NzEuODI0MiIvPjx0ZXh0IGZpbGw9IiMwMDAwMDAiIGZvbnQtZmFtaWx5PSJzYW5zLXNlcmlmIiBmb250LXNpemU9IjEyIiBsZW5ndGhBZGp1c3Q9InNwYWNpbmciIHRleHRMZW5ndGg9IjE2OCIgeD0iNDAyIiB5PSI1OTMuMTY4Ij5TaG93IGxpdmUgZGFzaGJvYXJkIHRvIGFkbWluPC90ZXh0PjxyZWN0IGZpbGw9IiNGMUYxRjEiIGhlaWdodD0iMzIuODQzOCIgcng9IjEyLjUiIHJ5PSIxMi41IiBzdHlsZT0ic3Ryb2tlOiMxODE4MTg7c3Ryb2tlLXdpZHRoOjAuNTsiIHdpZHRoPSIyNjAiIHg9IjM1NiIgeT0iNjg3LjY2OCIvPjx0ZXh0IGZpbGw9IiMwMDAwMDAiIGZvbnQtZmFtaWx5PSJzYW5zLXNlcmlmIiBmb250LXNpemU9IjEyIiBsZW5ndGhBZGp1c3Q9InNwYWNpbmciIHRleHRMZW5ndGg9IjI0MCIgeD0iMzY2IiB5PSI3MDkuMDExNyI+TG9hZCBkZXRhaWxlZCByZXBvcnQgZm9yIHNlbGVjdGVkIG1ldHJpYzwvdGV4dD48cmVjdCBmaWxsPSIjRjFGMUYxIiBoZWlnaHQ9IjMyLjg0MzgiIHJ4PSIxMi41IiByeT0iMTIuNSIgc3R5bGU9InN0cm9rZTojMTgxODE4O3N0cm9rZS13aWR0aDowLjU7IiB3aWR0aD0iMTA0IiB4PSI0MzQiIHk9Ijc1NS41MTE3Ii8+PHRleHQgZmlsbD0iIzAwMDAwMCIgZm9udC1mYW1pbHk9InNhbnMtc2VyaWYiIGZvbnQtc2l6ZT0iMTIiIGxlbmd0aEFkanVzdD0ic3BhY2luZyIgdGV4dExlbmd0aD0iODQiIHg9IjQ0NCIgeT0iNzc2Ljg1NTUiPkRpc3BsYXkgcmVwb3J0PC90ZXh0Pjxwb2x5Z29uIGZpbGw9IiNGMUYxRjEiIHBvaW50cz0iNDM5LjI1LDYzOS42NjgsNTMyLjc1LDYzOS42NjgsNTQ0Ljc1LDY1MS42NjgsNTMyLjc1LDY2My42NjgsNDM5LjI1LDY2My42NjgsNDI3LjI1LDY1MS42NjgsNDM5LjI1LDYzOS42NjgiIHN0eWxlPSJzdHJva2U6IzE4MTgxODtzdHJva2Utd2lkdGg6MC41OyIvPjx0ZXh0IGZpbGw9IiMwMDAwMDAiIGZvbnQtZmFtaWx5PSJzYW5zLXNlcmlmIiBmb250LXNpemU9IjExIiBsZW5ndGhBZGp1c3Q9InNwYWNpbmciIHRleHRMZW5ndGg9IjE2LjUiIHg9IjQ5MCIgeT0iNjc0LjA2NjQiPnllczwvdGV4dD48dGV4dCBmaWxsPSIjMDAwMDAwIiBmb250LWZhbWlseT0ic2Fucy1zZXJpZiIgZm9udC1zaXplPSIxMSIgbGVuZ3RoQWRqdXN0PSJzcGFjaW5nIiB0ZXh0TGVuZ3RoPSI5My41IiB4PSI0MzkuMjUiIHk9IjY1Ni4xNzk3Ij5EcmlsbCYjODIwOTtkb3duIGNsaWNrPzwvdGV4dD48cG9seWdvbiBmaWxsPSIjRjFGMUYxIiBwb2ludHM9IjQ4Niw4MTIuMzU1NSw0OTgsODI0LjM1NTUsNDg2LDgzNi4zNTU1LDQ3NCw4MjQuMzU1NSw0ODYsODEyLjM1NTUiIHN0eWxlPSJzdHJva2U6IzE4MTgxODtzdHJva2Utd2lkdGg6MC41OyIvPjxsaW5lIHN0eWxlPSJzdHJva2U6IzAwMDAwMDtzdHJva2Utd2lkdGg6MS41OyIgeDE9IjMwNSIgeDI9IjMwNSIgeTE9IjExLjI1IiB5Mj0iOTY1LjE2NDEiLz48cmVjdCBmaWxsPSIjRjFGMUYxIiBoZWlnaHQ9IjMyLjg0MzgiIHJ4PSIxMi41IiByeT0iMTIuNSIgc3R5bGU9InN0cm9rZTojMTgxODE4O3N0cm9rZS13aWR0aDowLjU7IiB3aWR0aD0iMTE2IiB4PSI5NjUiIHk9IjM0MC4zMjgxIi8+PHRleHQgZmlsbD0iIzAwMDAwMCIgZm9udC1mYW1pbHk9InNhbnMtc2VyaWYiIGZvbnQtc2l6ZT0iMTIiIGxlbmd0aEFkanVzdD0ic3BhY2luZyIgdGV4dExlbmd0aD0iOTYiIHg9Ijk3NSIgeT0iMzYxLjY3MTkiPkZldGNoIHN0YWZmIGxpc3Q8L3RleHQ+PHJlY3QgZmlsbD0iI0YxRjFGMSIgaGVpZ2h0PSIzMi44NDM4IiByeD0iMTIuNSIgcnk9IjEyLjUiIHN0eWxlPSJzdHJva2U6IzE4MTgxODtzdHJva2Utd2lkdGg6MC41OyIgd2lkdGg9IjEzNCIgeD0iOTU2IiB5PSI0MDguMTcxOSIvPjx0ZXh0IGZpbGw9IiMwMDAwMDAiIGZvbnQtZmFtaWx5PSJzYW5zLXNlcmlmIiBmb250LXNpemU9IjEyIiBsZW5ndGhBZGp1c3Q9InNwYWNpbmciIHRleHRMZW5ndGg9IjExNCIgeD0iOTY2IiB5PSI0MjkuNTE1NiI+U2hvdyB0YWJsZSBvZiBzdGFmZjwvdGV4dD48cG9seWdvbiBmaWxsPSIjRjFGMUYxIiBwb2ludHM9IjcyNy41LDUwMS4wMTU2LDkxNC41LDUwMS4wMTU2LDkyNi41LDUxMy4wMTU2LDkxNC41LDUyNS4wMTU2LDcyNy41LDUyNS4wMTU2LDcxNS41LDUxMy4wMTU2LDcyNy41LDUwMS4wMTU2IiBzdHlsZT0ic3Ryb2tlOiMxODE4MTg7c3Ryb2tlLXdpZHRoOjAuNTsiLz48dGV4dCBmaWxsPSIjMDAwMDAwIiBmb250LWZhbWlseT0ic2Fucy1zZXJpZiIgZm9udC1zaXplPSIxMSIgbGVuZ3RoQWRqdXN0PSJzcGFjaW5nIiB0ZXh0TGVuZ3RoPSIxNi41IiB4PSI4MjUiIHk9IjUzNS40MTQxIj5BZGQ8L3RleHQ+PHRleHQgZmlsbD0iIzAwMDAwMCIgZm9udC1mYW1pbHk9InNhbnMtc2VyaWYiIGZvbnQtc2l6ZT0iMTEiIGxlbmd0aEFkanVzdD0ic3BhY2luZyIgdGV4dExlbmd0aD0iMTg3IiB4PSI3MjcuNSIgeT0iNTE3LjUyNzMiPkFjdGlvbiBjaG9zZW4/IEFkZCAvIEVkaXQgLyBEZWxldGU8L3RleHQ+PHJlY3QgZmlsbD0iI0YxRjFGMSIgaGVpZ2h0PSIzMi44NDM4IiByeD0iMTIuNSIgcnk9IjEyLjUiIHN0eWxlPSJzdHJva2U6IzE4MTgxODtzdHJva2Utd2lkdGg6MC41OyIgd2lkdGg9IjE0NiIgeD0iNzQ4IiB5PSI1NTYuNzg5MSIvPjx0ZXh0IGZpbGw9IiMwMDAwMDAiIGZvbnQtZmFtaWx5PSJzYW5zLXNlcmlmIiBmb250LXNpemU9IjEyIiBsZW5ndGhBZGp1c3Q9InNwYWNpbmciIHRleHRMZW5ndGg9IjEyNiIgeD0iNzU4IiB5PSI1NzguMTMyOCI+T3BlbiAiQWRkIFN0YWZmIiBmb3JtPC90ZXh0PjxyZWN0IGZpbGw9IiNGMUYxRjEiIGhlaWdodD0iMzIuODQzOCIgcng9IjEyLjUiIHJ5PSIxMi41IiBzdHlsZT0ic3Ryb2tlOiMxODE4MTg7c3Ryb2tlLXdpZHRoOjAuNTsiIHdpZHRoPSI5OCIgeD0iNzcyIiB5PSI2MjQuNjMyOCIvPjx0ZXh0IGZpbGw9IiMwMDAwMDAiIGZvbnQtZmFtaWx5PSJzYW5zLXNlcmlmIiBmb250LXNpemU9IjEyIiBsZW5ndGhBZGp1c3Q9InNwYWNpbmciIHRleHRMZW5ndGg9Ijc4IiB4PSI3ODIiIHk9IjY0NS45NzY2Ij5WYWxpZGF0ZSBmb3JtPC90ZXh0Pjxwb2x5Z29uIGZpbGw9IiNGMUYxRjEiIHBvaW50cz0iODA0LjUsNjkyLjQ3NjYsODM3LjUsNjkyLjQ3NjYsODQ5LjUsNzA0LjQ3NjYsODM3LjUsNzE2LjQ3NjYsODA0LjUsNzE2LjQ3NjYsNzkyLjUsNzA0LjQ3NjYsODA0LjUsNjkyLjQ3NjYiIHN0eWxlPSJzdHJva2U6IzE4MTgxODtzdHJva2Utd2lkdGg6MC41OyIvPjx0ZXh0IGZpbGw9IiMwMDAwMDAiIGZvbnQtZmFtaWx5PSJzYW5zLXNlcmlmIiBmb250LXNpemU9IjExIiBsZW5ndGhBZGp1c3Q9InNwYWNpbmciIHRleHRMZW5ndGg9IjMzIiB4PSI4MDQuNSIgeT0iNzA4Ljk4ODMiPlZhbGlkPzwvdGV4dD48dGV4dCBmaWxsPSIjMDAwMDAwIiBmb250LWZhbWlseT0ic2Fucy1zZXJpZiIgZm9udC1zaXplPSIxMSIgbGVuZ3RoQWRqdXN0PSJzcGFjaW5nIiB0ZXh0TGVuZ3RoPSIxNi41IiB4PSI3NzYiIHk9IjcwMy4xMDE2Ij55ZXM8L3RleHQ+PHRleHQgZmlsbD0iIzAwMDAwMCIgZm9udC1mYW1pbHk9InNhbnMtc2VyaWYiIGZvbnQtc2l6ZT0iMTEiIGxlbmd0aEFkanVzdD0ic3BhY2luZyIgdGV4dExlbmd0aD0iMTEiIHg9Ijg0OS41IiB5PSI3MDMuMTAxNiI+bm88L3RleHQ+PHJlY3QgZmlsbD0iI0YxRjFGMSIgaGVpZ2h0PSIzMi44NDM4IiByeD0iMTIuNSIgcnk9IjEyLjUiIHN0eWxlPSJzdHJva2U6IzE4MTgxODtzdHJva2Utd2lkdGg6MC41OyIgd2lkdGg9IjE1OCIgeD0iNjcxIiB5PSI3MjYuNDc2NiIvPjx0ZXh0IGZpbGw9IiMwMDAwMDAiIGZvbnQtZmFtaWx5PSJzYW5zLXNlcmlmIiBmb250LXNpemU9IjEyIiBsZW5ndGhBZGp1c3Q9InNwYWNpbmciIHRleHRMZW5ndGg9IjEzOCIgeD0iNjgxIiB5PSI3NDcuODIwMyI+SW5zZXJ0IG5ldyBzdGFmZiByZWNvcmQ8L3RleHQ+PHJlY3QgZmlsbD0iI0YxRjFGMSIgaGVpZ2h0PSIzMi44NDM4IiByeD0iMTIuNSIgcnk9IjEyLjUiIHN0eWxlPSJzdHJva2U6IzE4MTgxODtzdHJva2Utd2lkdGg6MC41OyIgd2lkdGg9Ijk4IiB4PSI3MDEiIHk9Ijc5NC4zMjAzIi8+PHRleHQgZmlsbD0iIzAwMDAwMCIgZm9udC1mYW1pbHk9InNhbnMtc2VyaWYiIGZvbnQtc2l6ZT0iMTIiIGxlbmd0aEFkanVzdD0ic3BhY2luZyIgdGV4dExlbmd0aD0iNzgiIHg9IjcxMSIgeT0iODE1LjY2NDEiPlJlZnJlc2ggdGFibGU8L3RleHQ+PHJlY3QgZmlsbD0iI0YxRjFGMSIgaGVpZ2h0PSIzMi44NDM4IiByeD0iMTIuNSIgcnk9IjEyLjUiIHN0eWxlPSJzdHJva2U6IzE4MTgxODtzdHJva2Utd2lkdGg6MC41OyIgd2lkdGg9Ijg2IiB4PSI4NDkiIHk9IjcyNi40NzY2Ii8+PHRleHQgZmlsbD0iIzAwMDAwMCIgZm9udC1mYW1pbHk9InNhbnMtc2VyaWYiIGZvbnQtc2l6ZT0iMTIiIGxlbmd0aEFkanVzdD0ic3BhY2luZyIgdGV4dExlbmd0aD0iNjYiIHg9Ijg1OSIgeT0iNzQ3LjgyMDMiPlNob3cgZXJyb3JzPC90ZXh0Pjxwb2x5Z29uIGZpbGw9IiNGMUYxRjEiIHBvaW50cz0iODIxLDgzMy4xNjQxLDgzMyw4NDUuMTY0MSw4MjEsODU3LjE2NDEsODA5LDg0NS4xNjQxLDgyMSw4MzMuMTY0MSIgc3R5bGU9InN0cm9rZTojMTgxODE4O3N0cm9rZS13aWR0aDowLjU7Ii8+PHBvbHlnb24gZmlsbD0iI0YxRjFGMSIgcG9pbnRzPSIxMDQ1LDUwMS4wMTU2LDEwNjksNTAxLjAxNTYsMTA4MSw1MTMuMDE1NiwxMDY5LDUyNS4wMTU2LDEwNDUsNTI1LjAxNTYsMTAzMyw1MTMuMDE1NiwxMDQ1LDUwMS4wMTU2IiBzdHlsZT0ic3Ryb2tlOiMxODE4MTg7c3Ryb2tlLXdpZHRoOjAuNTsiLz48dGV4dCBmaWxsPSIjMDAwMDAwIiBmb250LWZhbWlseT0ic2Fucy1zZXJpZiIgZm9udC1zaXplPSIxMSIgbGVuZ3RoQWRqdXN0PSJzcGFjaW5nIiB0ZXh0TGVuZ3RoPSIyMiIgeD0iMTA0NiIgeT0iNTE3LjUyNzMiPkVkaXQ8L3RleHQ+PHJlY3QgZmlsbD0iI0YxRjFGMSIgaGVpZ2h0PSIzMi44NDM4IiByeD0iMTIuNSIgcnk9IjEyLjUiIHN0eWxlPSJzdHJva2U6IzE4MTgxODtzdHJva2Utd2lkdGg6MC41OyIgd2lkdGg9IjIyNCIgeD0iOTQ1IiB5PSI1NDUuMDE1NiIvPjx0ZXh0IGZpbGw9IiMwMDAwMDAiIGZvbnQtZmFtaWx5PSJzYW5zLXNlcmlmIiBmb250LXNpemU9IjEyIiBsZW5ndGhBZGp1c3Q9InNwYWNpbmciIHRleHRMZW5ndGg9IjIwNCIgeD0iOTU1IiB5PSI1NjYuMzU5NCI+T3BlbiAiRWRpdCBTdGFmZiIgZm9ybSAocHJlZmlsbGVkKTwvdGV4dD48cmVjdCBmaWxsPSIjRjFGMUYxIiBoZWlnaHQ9IjMyLjg0MzgiIHJ4PSIxMi41IiByeT0iMTIuNSIgc3R5bGU9InN0cm9rZTojMTgxODE4O3N0cm9rZS13aWR0aDowLjU7IiB3aWR0aD0iMTE2IiB4PSI5OTkiIHk9IjYxMi44NTk0Ii8+PHRleHQgZmlsbD0iIzAwMDAwMCIgZm9udC1mYW1pbHk9InNhbnMtc2VyaWYiIGZvbnQtc2l6ZT0iMTIiIGxlbmd0aEFkanVzdD0ic3BhY2luZyIgdGV4dExlbmd0aD0iOTYiIHg9IjEwMDkiIHk9IjYzNC4yMDMxIj5WYWxpZGF0ZSBjaGFuZ2VzPC90ZXh0PjxyZWN0IGZpbGw9IiNGMUYxRjEiIGhlaWdodD0iMzIuODQzOCIgcng9IjEyLjUiIHJ5PSIxMi41IiBzdHlsZT0ic3Ryb2tlOiMxODE4MTg7c3Ryb2tlLXdpZHRoOjAuNTsiIHdpZHRoPSIxMzQiIHg9Ijk5MCIgeT0iNjgwLjcwMzEiLz48dGV4dCBmaWxsPSIjMDAwMDAwIiBmb250LWZhbWlseT0ic2Fucy1zZXJpZiIgZm9udC1zaXplPSIxMiIgbGVuZ3RoQWRqdXN0PSJzcGFjaW5nIiB0ZXh0TGVuZ3RoPSIxMTQiIHg9IjEwMDAiIHk9IjcwMi4wNDY5Ij5VcGRhdGUgc3RhZmYgcmVjb3JkPC90ZXh0PjxyZWN0IGZpbGw9IiNGMUYxRjEiIGhlaWdodD0iMzIuODQzOCIgcng9IjEyLjUiIHJ5PSIxMi41IiBzdHlsZT0ic3Ryb2tlOiMxODE4MTg7c3Ryb2tlLXdpZHRoOjAuNTsiIHdpZHRoPSI5OCIgeD0iMTAwOCIgeT0iNzQ4LjU0NjkiLz48dGV4dCBmaWxsPSIjMDAwMDAwIiBmb250LWZhbWlseT0ic2Fucy1zZXJpZiIgZm9udC1zaXplPSIxMiIgbGVuZ3RoQWRqdXN0PSJzcGFjaW5nIiB0ZXh0TGVuZ3RoPSI3OCIgeD0iMTAxOCIgeT0iNzY5Ljg5MDYiPlJlZnJlc2ggdGFibGU8L3RleHQ+PHBvbHlnb24gZmlsbD0iI0YxRjFGMSIgcG9pbnRzPSIxMjI5LjUsNTAxLjAxNTYsMTI2Mi41LDUwMS4wMTU2LDEyNzQuNSw1MTMuMDE1NiwxMjYyLjUsNTI1LjAxNTYsMTIyOS41LDUyNS4wMTU2LDEyMTcuNSw1MTMuMDE1NiwxMjI5LjUsNTAxLjAxNTYiIHN0eWxlPSJzdHJva2U6IzE4MTgxODtzdHJva2Utd2lkdGg6MC41OyIvPjx0ZXh0IGZpbGw9IiMwMDAwMDAiIGZvbnQtZmFtaWx5PSJzYW5zLXNlcmlmIiBmb250LXNpemU9IjExIiBsZW5ndGhBZGp1c3Q9InNwYWNpbmciIHRleHRMZW5ndGg9IjMzIiB4PSIxMjI5LjUiIHk9IjUxNy41MjczIj5EZWxldGU8L3RleHQ+PHJlY3QgZmlsbD0iI0YxRjFGMSIgaGVpZ2h0PSIzMi44NDM4IiByeD0iMTIuNSIgcnk9IjEyLjUiIHN0eWxlPSJzdHJva2U6IzE4MTgxODtzdHJva2Utd2lkdGg6MC41OyIgd2lkdGg9IjEzNCIgeD0iMTE3OSIgeT0iNTkzLjAxNTYiLz48dGV4dCBmaWxsPSIjMDAwMDAwIiBmb250LWZhbWlseT0ic2Fucy1zZXJpZiIgZm9udC1zaXplPSIxMiIgbGVuZ3RoQWRqdXN0PSJzcGFjaW5nIiB0ZXh0TGVuZ3RoPSIxMTQiIHg9IjExODkiIHk9IjYxNC4zNTk0Ij5SZW1vdmUgc3RhZmYgcmVjb3JkPC90ZXh0PjxyZWN0IGZpbGw9IiNGMUYxRjEiIGhlaWdodD0iMzIuODQzOCIgcng9IjEyLjUiIHJ5PSIxMi41IiBzdHlsZT0ic3Ryb2tlOiMxODE4MTg7c3Ryb2tlLXdpZHRoOjAuNTsiIHdpZHRoPSI5OCIgeD0iMTE5NyIgeT0iNjYwLjg1OTQiLz48dGV4dCBmaWxsPSIjMDAwMDAwIiBmb250LWZhbWlseT0ic2Fucy1zZXJpZiIgZm9udC1zaXplPSIxMiIgbGVuZ3RoQWRqdXN0PSJzcGFjaW5nIiB0ZXh0TGVuZ3RoPSI3OCIgeD0iMTIwNyIgeT0iNjgyLjIwMzEiPlJlZnJlc2ggdGFibGU8L3RleHQ+PHBvbHlnb24gZmlsbD0iI0YxRjFGMSIgcG9pbnRzPSIxMjA0Ljc1LDU0NS4wMTU2LDEyODcuMjUsNTQ1LjAxNTYsMTI5OS4yNSw1NTcuMDE1NiwxMjg3LjI1LDU2OS4wMTU2LDEyMDQuNzUsNTY5LjAxNTYsMTE5Mi43NSw1NTcuMDE1NiwxMjA0Ljc1LDU0NS4wMTU2IiBzdHlsZT0ic3Ryb2tlOiMxODE4MTg7c3Ryb2tlLXdpZHRoOjAuNTsiLz48dGV4dCBmaWxsPSIjMDAwMDAwIiBmb250LWZhbWlseT0ic2Fucy1zZXJpZiIgZm9udC1zaXplPSIxMSIgbGVuZ3RoQWRqdXN0PSJzcGFjaW5nIiB0ZXh0TGVuZ3RoPSIxNi41IiB4PSIxMjUwIiB5PSI1NzkuNDE0MSI+eWVzPC90ZXh0Pjx0ZXh0IGZpbGw9IiMwMDAwMDAiIGZvbnQtZmFtaWx5PSJzYW5zLXNlcmlmIiBmb250LXNpemU9IjExIiBsZW5ndGhBZGp1c3Q9InNwYWNpbmciIHRleHRMZW5ndGg9IjgyLjUiIHg9IjEyMDQuNzUiIHk9IjU2MS41MjczIj5Db25maXJtIGRlbGV0ZT88L3RleHQ+PHBvbHlnb24gZmlsbD0iI0YxRjFGMSIgcG9pbnRzPSIxMjQ2LDcxNy43MDMxLDEyNTgsNzI5LjcwMzEsMTI0Niw3NDEuNzAzMSwxMjM0LDcyOS43MDMxLDEyNDYsNzE3LjcwMzEiIHN0eWxlPSJzdHJva2U6IzE4MTgxODtzdHJva2Utd2lkdGg6MC41OyIvPjxsaW5lIHN0eWxlPSJzdHJva2U6IzAwMDAwMDtzdHJva2Utd2lkdGg6MS41OyIgeDE9IjY2NSIgeDI9IjY2NSIgeTE9IjExLjI1IiB5Mj0iOTY1LjE2NDEiLz48cmVjdCBmaWxsPSIjRjFGMUYxIiBoZWlnaHQ9IjMyLjg0MzgiIHJ4PSIxMi41IiByeT0iMTIuNSIgc3R5bGU9InN0cm9rZTojMTgxODE4O3N0cm9rZS13aWR0aDowLjU7IiB3aWR0aD0iMTE2IiB4PSIxNTM3LjUiIHk9IjQ3MC4wNTg2Ii8+PHRleHQgZmlsbD0iIzAwMDAwMCIgZm9udC1mYW1pbHk9InNhbnMtc2VyaWYiIGZvbnQtc2l6ZT0iMTIiIGxlbmd0aEFkanVzdD0ic3BhY2luZyIgdGV4dExlbmd0aD0iOTYiIHg9IjE1NDcuNSIgeT0iNDkxLjQwMjMiPlNlbGVjdCBtYWpvciB0YWI8L3RleHQ+PHJlY3QgZmlsbD0iI0YxRjFGMSIgaGVpZ2h0PSIzMi44NDM4IiByeD0iMTIuNSIgcnk9IjEyLjUiIHN0eWxlPSJzdHJva2U6IzE4MTgxODtzdHJva2Utd2lkdGg6MC41OyIgd2lkdGg9IjE0MCIgeD0iMTUyNS41IiB5PSI1MzcuOTAyMyIvPjx0ZXh0IGZpbGw9IiMwMDAwMDAiIGZvbnQtZmFtaWx5PSJzYW5zLXNlcmlmIiBmb250LXNpemU9IjEyIiBsZW5ndGhBZGp1c3Q9InNwYWNpbmciIHRleHRMZW5ndGg9IjEyMCIgeD0iMTUzNS41IiB5PSI1NTkuMjQ2MSI+TG9hZCBib29rcyAmYW1wOyBjb3Vyc2VzPC90ZXh0PjxyZWN0IGZpbGw9IiNGMUYxRjEiIGhlaWdodD0iMzIuODQzOCIgcng9IjEyLjUiIHJ5PSIxMi41IiBzdHlsZT0ic3Ryb2tlOiMxODE4MTg7c3Ryb2tlLXdpZHRoOjAuNTsiIHdpZHRoPSIyMzAiIHg9IjE0ODAuNSIgeT0iNjA1Ljc0NjEiLz48dGV4dCBmaWxsPSIjMDAwMDAwIiBmb250LWZhbWlseT0ic2Fucy1zZXJpZiIgZm9udC1zaXplPSIxMiIgbGVuZ3RoQWRqdXN0PSJzcGFjaW5nIiB0ZXh0TGVuZ3RoPSIyMTAiIHg9IjE0OTAuNSIgeT0iNjI3LjA4OTgiPkRpc3BsYXkgdHdvIHRhYmxlcyAoQm9va3MsIENvdXJzZXMpPC90ZXh0PjxyZWN0IGZpbGw9IiNGMUYxRjEiIGhlaWdodD0iMzIuODQzOCIgcng9IjEyLjUiIHJ5PSIxMi41IiBzdHlsZT0ic3Ryb2tlOiMxODE4MTg7c3Ryb2tlLXdpZHRoOjAuNTsiIHdpZHRoPSIzOTgiIHg9IjEzOTYuNSIgeT0iNzIxLjU4OTgiLz48dGV4dCBmaWxsPSIjMDAwMDAwIiBmb250LWZhbWlseT0ic2Fucy1zZXJpZiIgZm9udC1zaXplPSIxMiIgbGVuZ3RoQWRqdXN0PSJzcGFjaW5nIiB0ZXh0TGVuZ3RoPSIzNzgiIHg9IjE0MDYuNSIgeT0iNzQyLjkzMzYiPi0mZ3Q7IHJldXNlIEFkZC9FZGl0L0RlbGV0ZSBzdWImIzgyMDk7Zmxvd3MgZnJvbSAiTWFuYWdlIEFjYWRlbWljIFN0YWZmIjwvdGV4dD48cG9seWdvbiBmaWxsPSIjRjFGMUYxIiBwb2ludHM9IjE1MjEuMjUsNjczLjU4OTgsMTY2OS43NSw2NzMuNTg5OCwxNjgxLjc1LDY4NS41ODk4LDE2NjkuNzUsNjk3LjU4OTgsMTUyMS4yNSw2OTcuNTg5OCwxNTA5LjI1LDY4NS41ODk4LDE1MjEuMjUsNjczLjU4OTgiIHN0eWxlPSJzdHJva2U6IzE4MTgxODtzdHJva2Utd2lkdGg6MC41OyIvPjx0ZXh0IGZpbGw9IiMwMDAwMDAiIGZvbnQtZmFtaWx5PSJzYW5zLXNlcmlmIiBmb250LXNpemU9IjExIiBsZW5ndGhBZGp1c3Q9InNwYWNpbmciIHRleHRMZW5ndGg9IjE0OC41IiB4PSIxNTIxLjI1IiB5PSI2OTAuMTAxNiI+QWN0aW9uPyBBZGQgLyBFZGl0IC8gRGVsZXRlPC90ZXh0Pjxwb2x5Z29uIGZpbGw9IiNGMUYxRjEiIHBvaW50cz0iMTU5NS41LDc3OC40MzM2LDE2MDcuNSw3OTAuNDMzNiwxNTk1LjUsODAyLjQzMzYsMTU4My41LDc5MC40MzM2LDE1OTUuNSw3NzguNDMzNiIgc3R5bGU9InN0cm9rZTojMTgxODE4O3N0cm9rZS13aWR0aDowLjU7Ii8+PGxpbmUgc3R5bGU9InN0cm9rZTojMDAwMDAwO3N0cm9rZS13aWR0aDoxLjU7IiB4MT0iMTM2MCIgeDI9IjEzNjAiIHkxPSIxMS4yNSIgeTI9Ijk2NS4xNjQxIi8+PHJlY3QgZmlsbD0iI0YxRjFGMSIgaGVpZ2h0PSIzMi44NDM4IiByeD0iMTIuNSIgcnk9IjEyLjUiIHN0eWxlPSJzdHJva2U6IzE4MTgxODtzdHJva2Utd2lkdGg6MC41OyIgd2lkdGg9IjExMCIgeD0iMjE1NSIgeT0iMzkyLjE3MTkiLz48dGV4dCBmaWxsPSIjMDAwMDAwIiBmb250LWZhbWlseT0ic2Fucy1zZXJpZiIgZm9udC1zaXplPSIxMiIgbGVuZ3RoQWRqdXN0PSJzcGFjaW5nIiB0ZXh0TGVuZ3RoPSI5MCIgeD0iMjE2NSIgeT0iNDEzLjUxNTYiPkZldGNoIHVzZXIgbGlzdDwvdGV4dD48cmVjdCBmaWxsPSIjRjFGMUYxIiBoZWlnaHQ9IjMyLjg0MzgiIHJ4PSIxMi41IiByeT0iMTIuNSIgc3R5bGU9InN0cm9rZTojMTgxODE4O3N0cm9rZS13aWR0aDowLjU7IiB3aWR0aD0iMTEwIiB4PSIyMTU1IiB5PSI0NjAuMDE1NiIvPjx0ZXh0IGZpbGw9IiMwMDAwMDAiIGZvbnQtZmFtaWx5PSJzYW5zLXNlcmlmIiBmb250LXNpemU9IjEyIiBsZW5ndGhBZGp1c3Q9InNwYWNpbmciIHRleHRMZW5ndGg9IjkwIiB4PSIyMTY1IiB5PSI0ODEuMzU5NCI+U2hvdyB1c2VyIHRhYmxlPC90ZXh0Pjxwb2x5Z29uIGZpbGw9IiNGMUYxRjEiIHBvaW50cz0iMTkxNiw1NTIuODU5NCwyMDkyLDU1Mi44NTk0LDIxMDQsNTY0Ljg1OTQsMjA5Miw1NzYuODU5NCwxOTE2LDU3Ni44NTk0LDE5MDQsNTY0Ljg1OTQsMTkxNiw1NTIuODU5NCIgc3R5bGU9InN0cm9rZTojMTgxODE4O3N0cm9rZS13aWR0aDowLjU7Ii8+PHRleHQgZmlsbD0iIzAwMDAwMCIgZm9udC1mYW1pbHk9InNhbnMtc2VyaWYiIGZvbnQtc2l6ZT0iMTEiIGxlbmd0aEFkanVzdD0ic3BhY2luZyIgdGV4dExlbmd0aD0iMzguNSIgeD0iMjAwOCIgeT0iNTg3LjI1NzgiPlByb21vdGU8L3RleHQ+PHRleHQgZmlsbD0iIzAwMDAwMCIgZm9udC1mYW1pbHk9InNhbnMtc2VyaWYiIGZvbnQtc2l6ZT0iMTEiIGxlbmd0aEFkanVzdD0ic3BhY2luZyIgdGV4dExlbmd0aD0iMTc2IiB4PSIxOTE2IiB5PSI1NjkuMzcxMSI+QWN0aW9uPyBQcm9tb3RlIC8gQmxvY2sgLyBEZWxldGU8L3RleHQ+PHJlY3QgZmlsbD0iI0YxRjFGMSIgaGVpZ2h0PSIzMi44NDM4IiByeD0iMTIuNSIgcnk9IjEyLjUiIHN0eWxlPSJzdHJva2U6IzE4MTgxODtzdHJva2Utd2lkdGg6MC41OyIgd2lkdGg9IjExNiIgeD0iMTk0NiIgeT0iNjU2LjYzMjgiLz48dGV4dCBmaWxsPSIjMDAwMDAwIiBmb250LWZhbWlseT0ic2Fucy1zZXJpZiIgZm9udC1zaXplPSIxMiIgbGVuZ3RoQWRqdXN0PSJzcGFjaW5nIiB0ZXh0TGVuZ3RoPSI5NiIgeD0iMTk1NiIgeT0iNjc3Ljk3NjYiPlVwZGF0ZSB1c2VyIHJvbGU8L3RleHQ+PHJlY3QgZmlsbD0iI0YxRjFGMSIgaGVpZ2h0PSIzMi44NDM4IiByeD0iMTIuNSIgcnk9IjEyLjUiIHN0eWxlPSJzdHJva2U6IzE4MTgxODtzdHJva2Utd2lkdGg6MC41OyIgd2lkdGg9IjEzNCIgeD0iMTkzNyIgeT0iNzI0LjQ3NjYiLz48dGV4dCBmaWxsPSIjMDAwMDAwIiBmb250LWZhbWlseT0ic2Fucy1zZXJpZiIgZm9udC1zaXplPSIxMiIgbGVuZ3RoQWRqdXN0PSJzcGFjaW5nIiB0ZXh0TGVuZ3RoPSIxMTQiIHg9IjE5NDciIHk9Ijc0NS44MjAzIj5TaG93ICJSb2xlIHVwZGF0ZWQiPC90ZXh0Pjxwb2x5Z29uIGZpbGw9IiNGMUYxRjEiIHBvaW50cz0iMTk1Ny4yNSw2MDguNjMyOCwyMDUwLjc1LDYwOC42MzI4LDIwNjIuNzUsNjIwLjYzMjgsMjA1MC43NSw2MzIuNjMyOCwxOTU3LjI1LDYzMi42MzI4LDE5NDUuMjUsNjIwLjYzMjgsMTk1Ny4yNSw2MDguNjMyOCIgc3R5bGU9InN0cm9rZTojMTgxODE4O3N0cm9rZS13aWR0aDowLjU7Ii8+PHRleHQgZmlsbD0iIzAwMDAwMCIgZm9udC1mYW1pbHk9InNhbnMtc2VyaWYiIGZvbnQtc2l6ZT0iMTEiIGxlbmd0aEFkanVzdD0ic3BhY2luZyIgdGV4dExlbmd0aD0iMTYuNSIgeD0iMjAwOCIgeT0iNjQzLjAzMTMiPnllczwvdGV4dD48dGV4dCBmaWxsPSIjMDAwMDAwIiBmb250LWZhbWlseT0ic2Fucy1zZXJpZiIgZm9udC1zaXplPSIxMSIgbGVuZ3RoQWRqdXN0PSJzcGFjaW5nIiB0ZXh0TGVuZ3RoPSI5My41IiB4PSIxOTU3LjI1IiB5PSI2MjUuMTQ0NSI+UHJvbW90ZSB0byBBZG1pbj88L3RleHQ+PHBvbHlnb24gZmlsbD0iI0YxRjFGMSIgcG9pbnRzPSIyMDA0LDc4MS4zMjAzLDIwMTYsNzkzLjMyMDMsMjAwNCw4MDUuMzIwMywxOTkyLDc5My4zMjAzLDIwMDQsNzgxLjMyMDMiIHN0eWxlPSJzdHJva2U6IzE4MTgxODtzdHJva2Utd2lkdGg6MC41OyIvPjxwb2x5Z29uIGZpbGw9IiNGMUYxRjEiIHBvaW50cz0iMjE4NS4yNSw1NTIuODU5NCwyMjEyLjc1LDU1Mi44NTk0LDIyMjQuNzUsNTY0Ljg1OTQsMjIxMi43NSw1NzYuODU5NCwyMTg1LjI1LDU3Ni44NTk0LDIxNzMuMjUsNTY0Ljg1OTQsMjE4NS4yNSw1NTIuODU5NCIgc3R5bGU9InN0cm9rZTojMTgxODE4O3N0cm9rZS13aWR0aDowLjU7Ii8+PHRleHQgZmlsbD0iIzAwMDAwMCIgZm9udC1mYW1pbHk9InNhbnMtc2VyaWYiIGZvbnQtc2l6ZT0iMTEiIGxlbmd0aEFkanVzdD0ic3BhY2luZyIgdGV4dExlbmd0aD0iMjcuNSIgeD0iMjE4NS4yNSIgeT0iNTY5LjM3MTEiPkJsb2NrPC90ZXh0PjxyZWN0IGZpbGw9IiNGMUYxRjEiIGhlaWdodD0iMzIuODQzOCIgcng9IjEyLjUiIHJ5PSIxMi41IiBzdHlsZT0ic3Ryb2tlOiMxODE4MTg7c3Ryb2tlLXdpZHRoOjAuNTsiIHdpZHRoPSIxNzAiIHg9IjIxMTQiIHk9IjY0NC44NTk0Ii8+PHRleHQgZmlsbD0iIzAwMDAwMCIgZm9udC1mYW1pbHk9InNhbnMtc2VyaWYiIGZvbnQtc2l6ZT0iMTIiIGxlbmd0aEFkanVzdD0ic3BhY2luZyIgdGV4dExlbmd0aD0iMTUwIiB4PSIyMTI0IiB5PSI2NjYuMjAzMSI+U2V0IHVzZXIgc3RhdHVzID0gYmxvY2tlZDwvdGV4dD48cmVjdCBmaWxsPSIjRjFGMUYxIiBoZWlnaHQ9IjMyLjg0MzgiIHJ4PSIxMi41IiByeT0iMTIuNSIgc3R5bGU9InN0cm9rZTojMTgxODE4O3N0cm9rZS13aWR0aDowLjU7IiB3aWR0aD0iMTM0IiB4PSIyMTMyIiB5PSI3MTIuNzAzMSIvPjx0ZXh0IGZpbGw9IiMwMDAwMDAiIGZvbnQtZmFtaWx5PSJzYW5zLXNlcmlmIiBmb250LXNpemU9IjEyIiBsZW5ndGhBZGp1c3Q9InNwYWNpbmciIHRleHRMZW5ndGg9IjExNCIgeD0iMjE0MiIgeT0iNzM0LjA0NjkiPlNob3cgIlVzZXIgYmxvY2tlZCI8L3RleHQ+PHBvbHlnb24gZmlsbD0iI0YxRjFGMSIgcG9pbnRzPSIyMTYwLjUsNTk2Ljg1OTQsMjIzNy41LDU5Ni44NTk0LDIyNDkuNSw2MDguODU5NCwyMjM3LjUsNjIwLjg1OTQsMjE2MC41LDYyMC44NTk0LDIxNDguNSw2MDguODU5NCwyMTYwLjUsNTk2Ljg1OTQiIHN0eWxlPSJzdHJva2U6IzE4MTgxODtzdHJva2Utd2lkdGg6MC41OyIvPjx0ZXh0IGZpbGw9IiMwMDAwMDAiIGZvbnQtZmFtaWx5PSJzYW5zLXNlcmlmIiBmb250LXNpemU9IjExIiBsZW5ndGhBZGp1c3Q9InNwYWNpbmciIHRleHRMZW5ndGg9IjE2LjUiIHg9IjIyMDMiIHk9IjYzMS4yNTc4Ij55ZXM8L3RleHQ+PHRleHQgZmlsbD0iIzAwMDAwMCIgZm9udC1mYW1pbHk9InNhbnMtc2VyaWYiIGZvbnQtc2l6ZT0iMTEiIGxlbmd0aEFkanVzdD0ic3BhY2luZyIgdGV4dExlbmd0aD0iNzciIHg9IjIxNjAuNSIgeT0iNjEzLjM3MTEiPkNvbmZpcm0gYmxvY2s/PC90ZXh0Pjxwb2x5Z29uIGZpbGw9IiNGMUYxRjEiIHBvaW50cz0iMjE5OSw3NjkuNTQ2OSwyMjExLDc4MS41NDY5LDIxOTksNzkzLjU0NjksMjE4Nyw3ODEuNTQ2OSwyMTk5LDc2OS41NDY5IiBzdHlsZT0ic3Ryb2tlOiMxODE4MTg7c3Ryb2tlLXdpZHRoOjAuNTsiLz48cG9seWdvbiBmaWxsPSIjRjFGMUYxIiBwb2ludHM9IjIzNTUuNSw1NTIuODU5NCwyMzg4LjUsNTUyLjg1OTQsMjQwMC41LDU2NC44NTk0LDIzODguNSw1NzYuODU5NCwyMzU1LjUsNTc2Ljg1OTQsMjM0My41LDU2NC44NTk0LDIzNTUuNSw1NTIuODU5NCIgc3R5bGU9InN0cm9rZTojMTgxODE4O3N0cm9rZS13aWR0aDowLjU7Ii8+PHRleHQgZmlsbD0iIzAwMDAwMCIgZm9udC1mYW1pbHk9InNhbnMtc2VyaWYiIGZvbnQtc2l6ZT0iMTEiIGxlbmd0aEFkanVzdD0ic3BhY2luZyIgdGV4dExlbmd0aD0iMzMiIHg9IjIzNTUuNSIgeT0iNTY5LjM3MTEiPkRlbGV0ZTwvdGV4dD48cmVjdCBmaWxsPSIjRjFGMUYxIiBoZWlnaHQ9IjMyLjg0MzgiIHJ4PSIxMi41IiByeT0iMTIuNSIgc3R5bGU9InN0cm9rZTojMTgxODE4O3N0cm9rZS13aWR0aDowLjU7IiB3aWR0aD0iMTI4IiB4PSIyMzA4IiB5PSI2NDQuODU5NCIvPjx0ZXh0IGZpbGw9IiMwMDAwMDAiIGZvbnQtZmFtaWx5PSJzYW5zLXNlcmlmIiBmb250LXNpemU9IjEyIiBsZW5ndGhBZGp1c3Q9InNwYWNpbmciIHRleHRMZW5ndGg9IjEwOCIgeD0iMjMxOCIgeT0iNjY2LjIwMzEiPlJlbW92ZSB1c2VyIHJlY29yZDwvdGV4dD48cmVjdCBmaWxsPSIjRjFGMUYxIiBoZWlnaHQ9IjMyLjg0MzgiIHJ4PSIxMi41IiByeT0iMTIuNSIgc3R5bGU9InN0cm9rZTojMTgxODE4O3N0cm9rZS13aWR0aDowLjU7IiB3aWR0aD0iOTgiIHg9IjIzMjMiIHk9IjcxMi43MDMxIi8+PHRleHQgZmlsbD0iIzAwMDAwMCIgZm9udC1mYW1pbHk9InNhbnMtc2VyaWYiIGZvbnQtc2l6ZT0iMTIiIGxlbmd0aEFkanVzdD0ic3BhY2luZyIgdGV4dExlbmd0aD0iNzgiIHg9IjIzMzMiIHk9IjczNC4wNDY5Ij5SZWZyZXNoIHRhYmxlPC90ZXh0Pjxwb2x5Z29uIGZpbGw9IiNGMUYxRjEiIHBvaW50cz0iMjMzMC43NSw1OTYuODU5NCwyNDEzLjI1LDU5Ni44NTk0LDI0MjUuMjUsNjA4Ljg1OTQsMjQxMy4yNSw2MjAuODU5NCwyMzMwLjc1LDYyMC44NTk0LDIzMTguNzUsNjA4Ljg1OTQsMjMzMC43NSw1OTYuODU5NCIgc3R5bGU9InN0cm9rZTojMTgxODE4O3N0cm9rZS13aWR0aDowLjU7Ii8+PHRleHQgZmlsbD0iIzAwMDAwMCIgZm9udC1mYW1pbHk9InNhbnMtc2VyaWYiIGZvbnQtc2l6ZT0iMTEiIGxlbmd0aEFkanVzdD0ic3BhY2luZyIgdGV4dExlbmd0aD0iMTYuNSIgeD0iMjM3NiIgeT0iNjMxLjI1NzgiPnllczwvdGV4dD48dGV4dCBmaWxsPSIjMDAwMDAwIiBmb250LWZhbWlseT0ic2Fucy1zZXJpZiIgZm9udC1zaXplPSIxMSIgbGVuZ3RoQWRqdXN0PSJzcGFjaW5nIiB0ZXh0TGVuZ3RoPSI4Mi41IiB4PSIyMzMwLjc1IiB5PSI2MTMuMzcxMSI+Q29uZmlybSBkZWxldGU/PC90ZXh0Pjxwb2x5Z29uIGZpbGw9IiNGMUYxRjEiIHBvaW50cz0iMjM3Miw3NjkuNTQ2OSwyMzg0LDc4MS41NDY5LDIzNzIsNzkzLjU0NjksMjM2MCw3ODEuNTQ2OSwyMzcyLDc2OS41NDY5IiBzdHlsZT0ic3Ryb2tlOiMxODE4MTg7c3Ryb2tlLXdpZHRoOjAuNTsiLz48cmVjdCBmaWxsPSIjNTU1NTU1IiBoZWlnaHQ9IjYiIHJ4PSIyLjUiIHJ5PSIyLjUiIHN0eWxlPSJzdHJva2U6IzU1NTU1NTtzdHJva2Utd2lkdGg6MTsiIHdpZHRoPSI2MjAiIHg9IjE4NjAiIHk9IjkxNy4xNjQxIi8+PGVsbGlwc2UgY3g9IjE4ODMiIGN5PSI5NTQuMTY0MSIgZmlsbD0ibm9uZSIgcng9IjExIiByeT0iMTEiIHN0eWxlPSJzdHJva2U6IzIyMjIyMjtzdHJva2Utd2lkdGg6MTsiLz48ZWxsaXBzZSBjeD0iMTg4MyIgY3k9Ijk1NC4xNjQxIiBmaWxsPSIjMjIyMjIyIiByeD0iNiIgcnk9IjYiIHN0eWxlPSJzdHJva2U6IzIyMjIyMjtzdHJva2Utd2lkdGg6MTsiLz48bGluZSBzdHlsZT0ic3Ryb2tlOiMwMDAwMDA7c3Ryb2tlLXdpZHRoOjEuNTsiIHgxPSIxODU0IiB4Mj0iMTg1NCIgeTE9IjExLjI1IiB5Mj0iOTY1LjE2NDEiLz48bGluZSBzdHlsZT0ic3Ryb2tlOiMwMDAwMDA7c3Ryb2tlLXdpZHRoOjEuNTsiIHgxPSIyNDg0IiB4Mj0iMjQ4NCIgeTE9IjExLjI1IiB5Mj0iOTY1LjE2NDEiLz48bGluZSBzdHlsZT0ic3Ryb2tlOiMxODE4MTg7c3Ryb2tlLXdpZHRoOjE7IiB4MT0iMTQxLjUiIHgyPSIxNDEuNSIgeTE9IjU5Ljc5NjkiIHkyPSI3OS43OTY5Ii8+PHBvbHlnb24gZmlsbD0iIzE4MTgxOCIgcG9pbnRzPSIxMzcuNSw2OS43OTY5LDE0MS41LDc5Ljc5NjksMTQ1LjUsNjkuNzk2OSwxNDEuNSw3My43OTY5IiBzdHlsZT0ic3Ryb2tlOiMxODE4MTg7c3Ryb2tlLXdpZHRoOjE7Ii8+PGxpbmUgc3R5bGU9InN0cm9rZTojMTgxODE4O3N0cm9rZS13aWR0aDoxOyIgeDE9IjE0MS41IiB4Mj0iMTQxLjUiIHkxPSIxMTIuNjQwNiIgeTI9IjEzMi42NDA2Ii8+PHBvbHlnb24gZmlsbD0iIzE4MTgxOCIgcG9pbnRzPSIxMzcuNSwxMjIuNjQwNiwxNDEuNSwxMzIuNjQwNiwxNDUuNSwxMjIuNjQwNiwxNDEuNSwxMjYuNjQwNiIgc3R5bGU9InN0cm9rZTojMTgxODE4O3N0cm9rZS13aWR0aDoxOyIvPjxsaW5lIHN0eWxlPSJzdHJva2U6IzE4MTgxODtzdHJva2Utd2lkdGg6MTsiIHgxPSIyMTMiIHgyPSIyMTMiIHkxPSIyNTIuMzI4MSIgeTI9IjI3Mi4zMjgxIi8+PHBvbHlnb24gZmlsbD0iIzE4MTgxOCIgcG9pbnRzPSIyMDksMjYyLjMyODEsMjEzLDI3Mi4zMjgxLDIxNywyNjIuMzI4MSwyMTMsMjY2LjMyODEiIHN0eWxlPSJzdHJva2U6IzE4MTgxODtzdHJva2Utd2lkdGg6MTsiLz48bGluZSBzdHlsZT0ic3Ryb2tlOiMxODE4MTg7c3Ryb2tlLXdpZHRoOjE7IiB4MT0iODAiIHgyPSI3MCIgeTE9IjE5Ny40ODQ0IiB5Mj0iMTk3LjQ4NDQiLz48bGluZSBzdHlsZT0ic3Ryb2tlOiMxODE4MTg7c3Ryb2tlLXdpZHRoOjE7IiB4MT0iNzAiIHgyPSI3MCIgeTE9IjE5Ny40ODQ0IiB5Mj0iMjE5LjQ4NDQiLz48cG9seWdvbiBmaWxsPSIjMTgxODE4IiBwb2ludHM9IjY2LDIwOS40ODQ0LDcwLDIxOS40ODQ0LDc0LDIwOS40ODQ0LDcwLDIxMy40ODQ0IiBzdHlsZT0ic3Ryb2tlOiMxODE4MTg7c3Ryb2tlLXdpZHRoOjE7Ii8+PGxpbmUgc3R5bGU9InN0cm9rZTojMTgxODE4O3N0cm9rZS13aWR0aDoxOyIgeDE9IjIwMyIgeDI9IjIxMyIgeTE9IjE5Ny40ODQ0IiB5Mj0iMTk3LjQ4NDQiLz48bGluZSBzdHlsZT0ic3Ryb2tlOiMxODE4MTg7c3Ryb2tlLXdpZHRoOjE7IiB4MT0iMjEzIiB4Mj0iMjEzIiB5MT0iMTk3LjQ4NDQiIHkyPSIyMTkuNDg0NCIvPjxwb2x5Z29uIGZpbGw9IiMxODE4MTgiIHBvaW50cz0iMjA5LDIwOS40ODQ0LDIxMywyMTkuNDg0NCwyMTcsMjA5LjQ4NDQsMjEzLDIxMy40ODQ0IiBzdHlsZT0ic3Ryb2tlOiMxODE4MTg7c3Ryb2tlLXdpZHRoOjE7Ii8+PGxpbmUgc3R5bGU9InN0cm9rZTojMTgxODE4O3N0cm9rZS13aWR0aDoxOyIgeDE9IjcwIiB4Mj0iNzAiIHkxPSIyNTIuMzI4MSIgeTI9IjI5OS4zMjgxIi8+PGxpbmUgc3R5bGU9InN0cm9rZTojMTgxODE4O3N0cm9rZS13aWR0aDoxOyIgeDE9IjcwIiB4Mj0iMTQxLjUiIHkxPSIyOTkuMzI4MSIgeTI9IjI5OS4zMjgxIi8+PGxpbmUgc3R5bGU9InN0cm9rZTojMTgxODE4O3N0cm9rZS13aWR0aDoxOyIgeDE9IjE0MS41IiB4Mj0iMTQxLjUiIHkxPSIyOTkuMzI4MSIgeTI9IjMxNC4zMjgxIi8+PHBvbHlnb24gZmlsbD0iIzE4MTgxOCIgcG9pbnRzPSIxMzcuNSwzMDQuMzI4MSwxNDEuNSwzMTQuMzI4MSwxNDUuNSwzMDQuMzI4MSwxNDEuNSwzMDguMzI4MSIgc3R5bGU9InN0cm9rZTojMTgxODE4O3N0cm9rZS13aWR0aDoxOyIvPjxsaW5lIHN0eWxlPSJzdHJva2U6IzE4MTgxODtzdHJva2Utd2lkdGg6MTsiIHgxPSIxNDEuNSIgeDI9IjE0MS41IiB5MT0iMTY1LjQ4NDQiIHkyPSIxODUuNDg0NCIvPjxwb2x5Z29uIGZpbGw9IiMxODE4MTgiIHBvaW50cz0iMTM3LjUsMTc1LjQ4NDQsMTQxLjUsMTg1LjQ4NDQsMTQ1LjUsMTc1LjQ4NDQsMTQxLjUsMTc5LjQ4NDQiIHN0eWxlPSJzdHJva2U6IzE4MTgxODtzdHJva2Utd2lkdGg6MTsiLz48bGluZSBzdHlsZT0ic3Ryb2tlOiMxODE4MTg7c3Ryb2tlLXdpZHRoOjE7IiB4MT0iNDg2IiB4Mj0iNDg2IiB5MT0iNDY4Ljk4MDUiIHkyPSI1MDMuOTgwNSIvPjxwb2x5Z29uIGZpbGw9IiMxODE4MTgiIHBvaW50cz0iNDgyLDQ5My45ODA1LDQ4Niw1MDMuOTgwNSw0OTAsNDkzLjk4MDUsNDg2LDQ5Ny45ODA1IiBzdHlsZT0ic3Ryb2tlOiMxODE4MTg7c3Ryb2tlLXdpZHRoOjE7Ii8+PGxpbmUgc3R5bGU9InN0cm9rZTojMTgxODE4O3N0cm9rZS13aWR0aDoxOyIgeDE9IjQ4NiIgeDI9IjQ4NiIgeTE9IjUzNi44MjQyIiB5Mj0iNTcxLjgyNDIiLz48cG9seWdvbiBmaWxsPSIjMTgxODE4IiBwb2ludHM9IjQ4Miw1NjEuODI0Miw0ODYsNTcxLjgyNDIsNDkwLDU2MS44MjQyLDQ4Niw1NjUuODI0MiIgc3R5bGU9InN0cm9rZTojMTgxODE4O3N0cm9rZS13aWR0aDoxOyIvPjxsaW5lIHN0eWxlPSJzdHJva2U6IzE4MTgxODtzdHJva2Utd2lkdGg6MTsiIHgxPSI0ODYiIHgyPSI0ODYiIHkxPSI3MjAuNTExNyIgeTI9Ijc1NS41MTE3Ii8+PHBvbHlnb24gZmlsbD0iIzE4MTgxOCIgcG9pbnRzPSI0ODIsNzQ1LjUxMTcsNDg2LDc1NS41MTE3LDQ5MCw3NDUuNTExNyw0ODYsNzQ5LjUxMTciIHN0eWxlPSJzdHJva2U6IzE4MTgxODtzdHJva2Utd2lkdGg6MTsiLz48bGluZSBzdHlsZT0ic3Ryb2tlOiMxODE4MTg7c3Ryb2tlLXdpZHRoOjE7IiB4MT0iNDg2IiB4Mj0iNDg2IiB5MT0iNjYzLjY2OCIgeTI9IjY4Ny42NjgiLz48cG9seWdvbiBmaWxsPSIjMTgxODE4IiBwb2ludHM9IjQ4Miw2NzcuNjY4LDQ4Niw2ODcuNjY4LDQ5MCw2NzcuNjY4LDQ4Niw2ODEuNjY4IiBzdHlsZT0ic3Ryb2tlOiMxODE4MTg7c3Ryb2tlLXdpZHRoOjE7Ii8+PGxpbmUgc3R5bGU9InN0cm9rZTojMTgxODE4O3N0cm9rZS13aWR0aDoxOyIgeDE9IjU0NC43NSIgeDI9IjYyNiIgeTE9IjY1MS42NjgiIHkyPSI2NTEuNjY4Ii8+PHBvbHlnb24gZmlsbD0iIzE4MTgxOCIgcG9pbnRzPSI2MjIsNzI4LjAxMTcsNjI2LDczOC4wMTE3LDYzMCw3MjguMDExNyw2MjYsNzMyLjAxMTciIHN0eWxlPSJzdHJva2U6IzE4MTgxODtzdHJva2Utd2lkdGg6MTsiLz48bGluZSBzdHlsZT0ic3Ryb2tlOiMxODE4MTg7c3Ryb2tlLXdpZHRoOjE7IiB4MT0iNjI2IiB4Mj0iNjI2IiB5MT0iNjUxLjY2OCIgeTI9IjgyNC4zNTU1Ii8+PGxpbmUgc3R5bGU9InN0cm9rZTojMTgxODE4O3N0cm9rZS13aWR0aDoxOyIgeDE9IjYyNiIgeDI9IjQ5OCIgeTE9IjgyNC4zNTU1IiB5Mj0iODI0LjM1NTUiLz48cG9seWdvbiBmaWxsPSIjMTgxODE4IiBwb2ludHM9IjUwOCw4MjAuMzU1NSw0OTgsODI0LjM1NTUsNTA4LDgyOC4zNTU1LDUwNCw4MjQuMzU1NSIgc3R5bGU9InN0cm9rZTojMTgxODE4O3N0cm9rZS13aWR0aDoxOyIvPjxsaW5lIHN0eWxlPSJzdHJva2U6IzE4MTgxODtzdHJva2Utd2lkdGg6MTsiIHgxPSI0ODYiIHgyPSI0ODYiIHkxPSI3ODguMzU1NSIgeTI9IjgxMi4zNTU1Ii8+PHBvbHlnb24gZmlsbD0iIzE4MTgxOCIgcG9pbnRzPSI0ODIsODAyLjM1NTUsNDg2LDgxMi4zNTU1LDQ5MCw4MDIuMzU1NSw0ODYsODA2LjM1NTUiIHN0eWxlPSJzdHJva2U6IzE4MTgxODtzdHJva2Utd2lkdGg6MTsiLz48bGluZSBzdHlsZT0ic3Ryb2tlOiMxODE4MTg7c3Ryb2tlLXdpZHRoOjE7IiB4MT0iNDg2IiB4Mj0iNDg2IiB5MT0iNjA0LjY2OCIgeTI9IjYzOS42NjgiLz48cG9seWdvbiBmaWxsPSIjMTgxODE4IiBwb2ludHM9IjQ4Miw2MjkuNjY4LDQ4Niw2MzkuNjY4LDQ5MCw2MjkuNjY4LDQ4Niw2MzMuNjY4IiBzdHlsZT0ic3Ryb2tlOiMxODE4MTg7c3Ryb2tlLXdpZHRoOjE7Ii8+PGxpbmUgc3R5bGU9InN0cm9rZTojMTgxODE4O3N0cm9rZS13aWR0aDoxOyIgeDE9IjEwMjMiIHgyPSIxMDIzIiB5MT0iMzczLjE3MTkiIHkyPSI0MDguMTcxOSIvPjxwb2x5Z29uIGZpbGw9IiMxODE4MTgiIHBvaW50cz0iMTAxOSwzOTguMTcxOSwxMDIzLDQwOC4xNzE5LDEwMjcsMzk4LjE3MTksMTAyMyw0MDIuMTcxOSIgc3R5bGU9InN0cm9rZTojMTgxODE4O3N0cm9rZS13aWR0aDoxOyIvPjxsaW5lIHN0eWxlPSJzdHJva2U6IzE4MTgxODtzdHJva2Utd2lkdGg6MTsiIHgxPSI4MjEiIHgyPSI4MjEiIHkxPSI1ODkuNjMyOCIgeTI9IjYyNC42MzI4Ii8+PHBvbHlnb24gZmlsbD0iIzE4MTgxOCIgcG9pbnRzPSI4MTcsNjE0LjYzMjgsODIxLDYyNC42MzI4LDgyNSw2MTQuNjMyOCw4MjEsNjE4LjYzMjgiIHN0eWxlPSJzdHJva2U6IzE4MTgxODtzdHJva2Utd2lkdGg6MTsiLz48bGluZSBzdHlsZT0ic3Ryb2tlOiMxODE4MTg7c3Ryb2tlLXdpZHRoOjE7IiB4MT0iNzUwIiB4Mj0iNzUwIiB5MT0iNzU5LjMyMDMiIHkyPSI3OTQuMzIwMyIvPjxwb2x5Z29uIGZpbGw9IiMxODE4MTgiIHBvaW50cz0iNzQ2LDc4NC4zMjAzLDc1MCw3OTQuMzIwMyw3NTQsNzg0LjMyMDMsNzUwLDc4OC4zMjAzIiBzdHlsZT0ic3Ryb2tlOiMxODE4MTg7c3Ryb2tlLXdpZHRoOjE7Ii8+PGxpbmUgc3R5bGU9InN0cm9rZTojMTgxODE4O3N0cm9rZS13aWR0aDoxOyIgeDE9Ijc5Mi41IiB4Mj0iNzUwIiB5MT0iNzA0LjQ3NjYiIHkyPSI3MDQuNDc2NiIvPjxsaW5lIHN0eWxlPSJzdHJva2U6IzE4MTgxODtzdHJva2Utd2lkdGg6MTsiIHgxPSI3NTAiIHgyPSI3NTAiIHkxPSI3MDQuNDc2NiIgeTI9IjcyNi40NzY2Ii8+PHBvbHlnb24gZmlsbD0iIzE4MTgxOCIgcG9pbnRzPSI3NDYsNzE2LjQ3NjYsNzUwLDcyNi40NzY2LDc1NCw3MTYuNDc2Niw3NTAsNzIwLjQ3NjYiIHN0eWxlPSJzdHJva2U6IzE4MTgxODtzdHJva2Utd2lkdGg6MTsiLz48bGluZSBzdHlsZT0ic3Ryb2tlOiMxODE4MTg7c3Ryb2tlLXdpZHRoOjE7IiB4MT0iODQ5LjUiIHgyPSI4OTIiIHkxPSI3MDQuNDc2NiIgeTI9IjcwNC40NzY2Ii8+PGxpbmUgc3R5bGU9InN0cm9rZTojMTgxODE4O3N0cm9rZS13aWR0aDoxOyIgeDE9Ijg5MiIgeDI9Ijg5MiIgeTE9IjcwNC40NzY2IiB5Mj0iNzI2LjQ3NjYiLz48cG9seWdvbiBmaWxsPSIjMTgxODE4IiBwb2ludHM9Ijg4OCw3MTYuNDc2Niw4OTIsNzI2LjQ3NjYsODk2LDcxNi40NzY2LDg5Miw3MjAuNDc2NiIgc3R5bGU9InN0cm9rZTojMTgxODE4O3N0cm9rZS13aWR0aDoxOyIvPjxsaW5lIHN0eWxlPSJzdHJva2U6IzE4MTgxODtzdHJva2Utd2lkdGg6MTsiIHgxPSI3NTAiIHgyPSI3NTAiIHkxPSI4MjcuMTY0MSIgeTI9Ijg0NS4xNjQxIi8+PGxpbmUgc3R5bGU9InN0cm9rZTojMTgxODE4O3N0cm9rZS13aWR0aDoxOyIgeDE9Ijc1MCIgeDI9IjgwOSIgeTE9Ijg0NS4xNjQxIiB5Mj0iODQ1LjE2NDEiLz48cG9seWdvbiBmaWxsPSIjMTgxODE4IiBwb2ludHM9Ijc5OSw4NDEuMTY0MSw4MDksODQ1LjE2NDEsNzk5LDg0OS4xNjQxLDgwMyw4NDUuMTY0MSIgc3R5bGU9InN0cm9rZTojMTgxODE4O3N0cm9rZS13aWR0aDoxOyIvPjxsaW5lIHN0eWxlPSJzdHJva2U6IzE4MTgxODtzdHJva2Utd2lkdGg6MTsiIHgxPSI4OTIiIHgyPSI4OTIiIHkxPSI3NTkuMzIwMyIgeTI9Ijg0NS4xNjQxIi8+PGxpbmUgc3R5bGU9InN0cm9rZTojMTgxODE4O3N0cm9rZS13aWR0aDoxOyIgeDE9Ijg5MiIgeDI9IjgzMyIgeTE9Ijg0NS4xNjQxIiB5Mj0iODQ1LjE2NDEiLz48cG9seWdvbiBmaWxsPSIjMTgxODE4IiBwb2ludHM9Ijg0Myw4NDEuMTY0MSw4MzMsODQ1LjE2NDEsODQzLDg0OS4xNjQxLDgzOSw4NDUuMTY0MSIgc3R5bGU9InN0cm9rZTojMTgxODE4O3N0cm9rZS13aWR0aDoxOyIvPjxsaW5lIHN0eWxlPSJzdHJva2U6IzE4MTgxODtzdHJva2Utd2lkdGg6MTsiIHgxPSI4MjEiIHgyPSI4MjEiIHkxPSI2NTcuNDc2NiIgeTI9IjY5Mi40NzY2Ii8+PHBvbHlnb24gZmlsbD0iIzE4MTgxOCIgcG9pbnRzPSI4MTcsNjgyLjQ3NjYsODIxLDY5Mi40NzY2LDgyNSw2ODIuNDc2Niw4MjEsNjg2LjQ3NjYiIHN0eWxlPSJzdHJva2U6IzE4MTgxODtzdHJva2Utd2lkdGg6MTsiLz48bGluZSBzdHlsZT0ic3Ryb2tlOiMxODE4MTg7c3Ryb2tlLXdpZHRoOjE7IiB4MT0iMTA1NyIgeDI9IjEwNTciIHkxPSI1NzcuODU5NCIgeTI9IjYxMi44NTk0Ii8+PHBvbHlnb24gZmlsbD0iIzE4MTgxOCIgcG9pbnRzPSIxMDUzLDYwMi44NTk0LDEwNTcsNjEyLjg1OTQsMTA2MSw2MDIuODU5NCwxMDU3LDYwNi44NTk0IiBzdHlsZT0ic3Ryb2tlOiMxODE4MTg7c3Ryb2tlLXdpZHRoOjE7Ii8+PGxpbmUgc3R5bGU9InN0cm9rZTojMTgxODE4O3N0cm9rZS13aWR0aDoxOyIgeDE9IjEwNTciIHgyPSIxMDU3IiB5MT0iNjQ1LjcwMzEiIHkyPSI2ODAuNzAzMSIvPjxwb2x5Z29uIGZpbGw9IiMxODE4MTgiIHBvaW50cz0iMTA1Myw2NzAuNzAzMSwxMDU3LDY4MC43MDMxLDEwNjEsNjcwLjcwMzEsMTA1Nyw2NzQuNzAzMSIgc3R5bGU9InN0cm9rZTojMTgxODE4O3N0cm9rZS13aWR0aDoxOyIvPjxsaW5lIHN0eWxlPSJzdHJva2U6IzE4MTgxODtzdHJva2Utd2lkdGg6MTsiIHgxPSIxMDU3IiB4Mj0iMTA1NyIgeTE9IjcxMy41NDY5IiB5Mj0iNzQ4LjU0NjkiLz48cG9seWdvbiBmaWxsPSIjMTgxODE4IiBwb2ludHM9IjEwNTMsNzM4LjU0NjksMTA1Nyw3NDguNTQ2OSwxMDYxLDczOC41NDY5LDEwNTcsNzQyLjU0NjkiIHN0eWxlPSJzdHJva2U6IzE4MTgxODtzdHJva2Utd2lkdGg6MTsiLz48bGluZSBzdHlsZT0ic3Ryb2tlOiMxODE4MTg7c3Ryb2tlLXdpZHRoOjE7IiB4MT0iMTI0NiIgeDI9IjEyNDYiIHkxPSI2MjUuODU5NCIgeTI9IjY2MC44NTk0Ii8+PHBvbHlnb24gZmlsbD0iIzE4MTgxOCIgcG9pbnRzPSIxMjQyLDY1MC44NTk0LDEyNDYsNjYwLjg1OTQsMTI1MCw2NTAuODU5NCwxMjQ2LDY1NC44NTk0IiBzdHlsZT0ic3Ryb2tlOiMxODE4MTg7c3Ryb2tlLXdpZHRoOjE7Ii8+PGxpbmUgc3R5bGU9InN0cm9rZTojMTgxODE4O3N0cm9rZS13aWR0aDoxOyIgeDE9IjEyNDYiIHgyPSIxMjQ2IiB5MT0iNTY5LjAxNTYiIHkyPSI1OTMuMDE1NiIvPjxwb2x5Z29uIGZpbGw9IiMxODE4MTgiIHBvaW50cz0iMTI0Miw1ODMuMDE1NiwxMjQ2LDU5My4wMTU2LDEyNTAsNTgzLjAxNTYsMTI0Niw1ODcuMDE1NiIgc3R5bGU9InN0cm9rZTojMTgxODE4O3N0cm9rZS13aWR0aDoxOyIvPjxsaW5lIHN0eWxlPSJzdHJva2U6IzE4MTgxODtzdHJva2Utd2lkdGg6MTsiIHgxPSIxMjk5LjI1IiB4Mj0iMTMyMyIgeTE9IjU1Ny4wMTU2IiB5Mj0iNTU3LjAxNTYiLz48cG9seWdvbiBmaWxsPSIjMTgxODE4IiBwb2ludHM9IjEzMTksNjMzLjM1OTQsMTMyMyw2NDMuMzU5NCwxMzI3LDYzMy4zNTk0LDEzMjMsNjM3LjM1OTQiIHN0eWxlPSJzdHJva2U6IzE4MTgxODtzdHJva2Utd2lkdGg6MTsiLz48bGluZSBzdHlsZT0ic3Ryb2tlOiMxODE4MTg7c3Ryb2tlLXdpZHRoOjE7IiB4MT0iMTMyMyIgeDI9IjEzMjMiIHkxPSI1NTcuMDE1NiIgeTI9IjcyOS43MDMxIi8+PGxpbmUgc3R5bGU9InN0cm9rZTojMTgxODE4O3N0cm9rZS13aWR0aDoxOyIgeDE9IjEzMjMiIHgyPSIxMjU4IiB5MT0iNzI5LjcwMzEiIHkyPSI3MjkuNzAzMSIvPjxwb2x5Z29uIGZpbGw9IiMxODE4MTgiIHBvaW50cz0iMTI2OCw3MjUuNzAzMSwxMjU4LDcyOS43MDMxLDEyNjgsNzMzLjcwMzEsMTI2NCw3MjkuNzAzMSIgc3R5bGU9InN0cm9rZTojMTgxODE4O3N0cm9rZS13aWR0aDoxOyIvPjxsaW5lIHN0eWxlPSJzdHJva2U6IzE4MTgxODtzdHJva2Utd2lkdGg6MTsiIHgxPSIxMjQ2IiB4Mj0iMTI0NiIgeTE9IjY5My43MDMxIiB5Mj0iNzE3LjcwMzEiLz48cG9seWdvbiBmaWxsPSIjMTgxODE4IiBwb2ludHM9IjEyNDIsNzA3LjcwMzEsMTI0Niw3MTcuNzAzMSwxMjUwLDcwNy43MDMxLDEyNDYsNzExLjcwMzEiIHN0eWxlPSJzdHJva2U6IzE4MTgxODtzdHJva2Utd2lkdGg6MTsiLz48bGluZSBzdHlsZT0ic3Ryb2tlOiMxODE4MTg7c3Ryb2tlLXdpZHRoOjE7IiB4MT0iODIxIiB4Mj0iODIxIiB5MT0iNTI1LjAxNTYiIHkyPSI1NTYuNzg5MSIvPjxwb2x5Z29uIGZpbGw9IiMxODE4MTgiIHBvaW50cz0iODE3LDU0Ni43ODkxLDgyMSw1NTYuNzg5MSw4MjUsNTQ2Ljc4OTEsODIxLDU1MC43ODkxIiBzdHlsZT0ic3Ryb2tlOiMxODE4MTg7c3Ryb2tlLXdpZHRoOjE7Ii8+PGxpbmUgc3R5bGU9InN0cm9rZTojMTgxODE4O3N0cm9rZS13aWR0aDoxOyIgeDE9IjgyMSIgeDI9IjgyMSIgeTE9Ijg1Ny4xNjQxIiB5Mj0iODk3LjE2NDEiLz48cG9seWdvbiBmaWxsPSIjMTgxODE4IiBwb2ludHM9IjgxNyw4ODcuMTY0MSw4MjEsODk3LjE2NDEsODI1LDg4Ny4xNjQxLDgyMSw4OTEuMTY0MSIgc3R5bGU9InN0cm9rZTojMTgxODE4O3N0cm9rZS13aWR0aDoxOyIvPjxsaW5lIHN0eWxlPSJzdHJva2U6IzE4MTgxODtzdHJva2Utd2lkdGg6MTsiIHgxPSIxMDU3IiB4Mj0iMTA1NyIgeTE9IjUyNS4wMTU2IiB5Mj0iNTQ1LjAxNTYiLz48cG9seWdvbiBmaWxsPSIjMTgxODE4IiBwb2ludHM9IjEwNTMsNTM1LjAxNTYsMTA1Nyw1NDUuMDE1NiwxMDYxLDUzNS4wMTU2LDEwNTcsNTM5LjAxNTYiIHN0eWxlPSJzdHJva2U6IzE4MTgxODtzdHJva2Utd2lkdGg6MTsiLz48bGluZSBzdHlsZT0ic3Ryb2tlOiMxODE4MTg7c3Ryb2tlLXdpZHRoOjE7IiB4MT0iMTA1NyIgeDI9IjEwNTciIHkxPSI3ODEuMzkwNiIgeTI9Ijg5Ny4xNjQxIi8+PHBvbHlnb24gZmlsbD0iIzE4MTgxOCIgcG9pbnRzPSIxMDUzLDg4Ny4xNjQxLDEwNTcsODk3LjE2NDEsMTA2MSw4ODcuMTY0MSwxMDU3LDg5MS4xNjQxIiBzdHlsZT0ic3Ryb2tlOiMxODE4MTg7c3Ryb2tlLXdpZHRoOjE7Ii8+PGxpbmUgc3R5bGU9InN0cm9rZTojMTgxODE4O3N0cm9rZS13aWR0aDoxOyIgeDE9IjEyNDYiIHgyPSIxMjQ2IiB5MT0iNTI1LjAxNTYiIHkyPSI1NDUuMDE1NiIvPjxwb2x5Z29uIGZpbGw9IiMxODE4MTgiIHBvaW50cz0iMTI0Miw1MzUuMDE1NiwxMjQ2LDU0NS4wMTU2LDEyNTAsNTM1LjAxNTYsMTI0Niw1MzkuMDE1NiIgc3R5bGU9InN0cm9rZTojMTgxODE4O3N0cm9rZS13aWR0aDoxOyIvPjxsaW5lIHN0eWxlPSJzdHJva2U6IzE4MTgxODtzdHJva2Utd2lkdGg6MTsiIHgxPSIxMjQ2IiB4Mj0iMTI0NiIgeTE9Ijc0MS43MDMxIiB5Mj0iODk3LjE2NDEiLz48cG9seWdvbiBmaWxsPSIjMTgxODE4IiBwb2ludHM9IjEyNDIsODg3LjE2NDEsMTI0Niw4OTcuMTY0MSwxMjUwLDg4Ny4xNjQxLDEyNDYsODkxLjE2NDEiIHN0eWxlPSJzdHJva2U6IzE4MTgxODtzdHJva2Utd2lkdGg6MTsiLz48bGluZSBzdHlsZT0ic3Ryb2tlOiMxODE4MTg7c3Ryb2tlLXdpZHRoOjE7IiB4MT0iOTI2LjUiIHgyPSIxMDMzIiB5MT0iNTEzLjAxNTYiIHkyPSI1MTMuMDE1NiIvPjxwb2x5Z29uIGZpbGw9IiMxODE4MTgiIHBvaW50cz0iMTAyMyw1MDkuMDE1NiwxMDMzLDUxMy4wMTU2LDEwMjMsNTE3LjAxNTYsMTAyNyw1MTMuMDE1NiIgc3R5bGU9InN0cm9rZTojMTgxODE4O3N0cm9rZS13aWR0aDoxOyIvPjxsaW5lIHN0eWxlPSJzdHJva2U6IzE4MTgxODtzdHJva2Utd2lkdGg6MTsiIHgxPSIxMDgxIiB4Mj0iMTIxNy41IiB5MT0iNTEzLjAxNTYiIHkyPSI1MTMuMDE1NiIvPjxwb2x5Z29uIGZpbGw9IiMxODE4MTgiIHBvaW50cz0iMTIwNy41LDUwOS4wMTU2LDEyMTcuNSw1MTMuMDE1NiwxMjA3LjUsNTE3LjAxNTYsMTIxMS41LDUxMy4wMTU2IiBzdHlsZT0ic3Ryb2tlOiMxODE4MTg7c3Ryb2tlLXdpZHRoOjE7Ii8+PGxpbmUgc3R5bGU9InN0cm9rZTojMTgxODE4O3N0cm9rZS13aWR0aDoxOyIgeDE9IjEwMjMiIHgyPSIxMDIzIiB5MT0iNDQxLjAxNTYiIHkyPSI0NzYuMDE1NiIvPjxsaW5lIHN0eWxlPSJzdHJva2U6IzE4MTgxODtzdHJva2Utd2lkdGg6MTsiIHgxPSIxMDIzIiB4Mj0iODIxIiB5MT0iNDc2LjAxNTYiIHkyPSI0NzYuMDE1NiIvPjxsaW5lIHN0eWxlPSJzdHJva2U6IzE4MTgxODtzdHJva2Utd2lkdGg6MTsiIHgxPSI4MjEiIHgyPSI4MjEiIHkxPSI0NzYuMDE1NiIgeTI9IjUwMS4wMTU2Ii8+PHBvbHlnb24gZmlsbD0iIzE4MTgxOCIgcG9pbnRzPSI4MTcsNDkxLjAxNTYsODIxLDUwMS4wMTU2LDgyNSw0OTEuMDE1Niw4MjEsNDk1LjAxNTYiIHN0eWxlPSJzdHJva2U6IzE4MTgxODtzdHJva2Utd2lkdGg6MTsiLz48bGluZSBzdHlsZT0ic3Ryb2tlOiMxODE4MTg7c3Ryb2tlLXdpZHRoOjE7IiB4MT0iMTI3NC41IiB4Mj0iMTM0MSIgeTE9IjUxMy4wMTU2IiB5Mj0iNTEzLjAxNTYiLz48bGluZSBzdHlsZT0ic3Ryb2tlOiMxODE4MTg7c3Ryb2tlLXdpZHRoOjE7IiB4MT0iMTM0MSIgeDI9IjEzNDEiIHkxPSI1MTMuMDE1NiIgeTI9Ijg5Ny4xNjQxIi8+PHBvbHlnb24gZmlsbD0iIzE4MTgxOCIgcG9pbnRzPSIxMzM3LDg4Ny4xNjQxLDEzNDEsODk3LjE2NDEsMTM0NSw4ODcuMTY0MSwxMzQxLDg5MS4xNjQxIiBzdHlsZT0ic3Ryb2tlOiMxODE4MTg7c3Ryb2tlLXdpZHRoOjE7Ii8+PGxpbmUgc3R5bGU9InN0cm9rZTojMTgxODE4O3N0cm9rZS13aWR0aDoxOyIgeDE9IjgyMSIgeDI9IjEzNDEiIHkxPSI4OTcuMTY0MSIgeTI9Ijg5Ny4xNjQxIi8+PGxpbmUgc3R5bGU9InN0cm9rZTojMTgxODE4O3N0cm9rZS13aWR0aDoxOyIgeDE9IjE1OTUuNSIgeDI9IjE1OTUuNSIgeTE9IjUwMi45MDIzIiB5Mj0iNTM3LjkwMjMiLz48cG9seWdvbiBmaWxsPSIjMTgxODE4IiBwb2ludHM9IjE1OTEuNSw1MjcuOTAyMywxNTk1LjUsNTM3LjkwMjMsMTU5OS41LDUyNy45MDIzLDE1OTUuNSw1MzEuOTAyMyIgc3R5bGU9InN0cm9rZTojMTgxODE4O3N0cm9rZS13aWR0aDoxOyIvPjxsaW5lIHN0eWxlPSJzdHJva2U6IzE4MTgxODtzdHJva2Utd2lkdGg6MTsiIHgxPSIxNTk1LjUiIHgyPSIxNTk1LjUiIHkxPSI1NzAuNzQ2MSIgeTI9IjYwNS43NDYxIi8+PHBvbHlnb24gZmlsbD0iIzE4MTgxOCIgcG9pbnRzPSIxNTkxLjUsNTk1Ljc0NjEsMTU5NS41LDYwNS43NDYxLDE1OTkuNSw1OTUuNzQ2MSwxNTk1LjUsNTk5Ljc0NjEiIHN0eWxlPSJzdHJva2U6IzE4MTgxODtzdHJva2Utd2lkdGg6MTsiLz48bGluZSBzdHlsZT0ic3Ryb2tlOiMxODE4MTg7c3Ryb2tlLXdpZHRoOjE7IiB4MT0iMTU5NS41IiB4Mj0iMTU5NS41IiB5MT0iNjk3LjU4OTgiIHkyPSI3MjEuNTg5OCIvPjxwb2x5Z29uIGZpbGw9IiMxODE4MTgiIHBvaW50cz0iMTU5MS41LDcxMS41ODk4LDE1OTUuNSw3MjEuNTg5OCwxNTk5LjUsNzExLjU4OTgsMTU5NS41LDcxNS41ODk4IiBzdHlsZT0ic3Ryb2tlOiMxODE4MTg7c3Ryb2tlLXdpZHRoOjE7Ii8+PGxpbmUgc3R5bGU9InN0cm9rZTojMTgxODE4O3N0cm9rZS13aWR0aDoxOyIgeDE9IjE2ODEuNzUiIHgyPSIxODA0LjUiIHkxPSI2ODUuNTg5OCIgeTI9IjY4NS41ODk4Ii8+PHBvbHlnb24gZmlsbD0iIzE4MTgxOCIgcG9pbnRzPSIxODAwLjUsNzI4LjAxMTcsMTgwNC41LDczOC4wMTE3LDE4MDguNSw3MjguMDExNywxODA0LjUsNzMyLjAxMTciIHN0eWxlPSJzdHJva2U6IzE4MTgxODtzdHJva2Utd2lkdGg6MTsiLz48bGluZSBzdHlsZT0ic3Ryb2tlOiMxODE4MTg7c3Ryb2tlLXdpZHRoOjE7IiB4MT0iMTgwNC41IiB4Mj0iMTgwNC41IiB5MT0iNjg1LjU4OTgiIHkyPSI3OTAuNDMzNiIvPjxsaW5lIHN0eWxlPSJzdHJva2U6IzE4MTgxODtzdHJva2Utd2lkdGg6MTsiIHgxPSIxODA0LjUiIHgyPSIxNjA3LjUiIHkxPSI3OTAuNDMzNiIgeTI9Ijc5MC40MzM2Ii8+PHBvbHlnb24gZmlsbD0iIzE4MTgxOCIgcG9pbnRzPSIxNjE3LjUsNzg2LjQzMzYsMTYwNy41LDc5MC40MzM2LDE2MTcuNSw3OTQuNDMzNiwxNjEzLjUsNzkwLjQzMzYiIHN0eWxlPSJzdHJva2U6IzE4MTgxODtzdHJva2Utd2lkdGg6MTsiLz48bGluZSBzdHlsZT0ic3Ryb2tlOiMxODE4MTg7c3Ryb2tlLXdpZHRoOjE7IiB4MT0iMTU5NS41IiB4Mj0iMTU5NS41IiB5MT0iNzU0LjQzMzYiIHkyPSI3NzguNDMzNiIvPjxwb2x5Z29uIGZpbGw9IiMxODE4MTgiIHBvaW50cz0iMTU5MS41LDc2OC40MzM2LDE1OTUuNSw3NzguNDMzNiwxNTk5LjUsNzY4LjQzMzYsMTU5NS41LDc3Mi40MzM2IiBzdHlsZT0ic3Ryb2tlOiMxODE4MTg7c3Ryb2tlLXdpZHRoOjE7Ii8+PGxpbmUgc3R5bGU9InN0cm9rZTojMTgxODE4O3N0cm9rZS13aWR0aDoxOyIgeDE9IjE1OTUuNSIgeDI9IjE1OTUuNSIgeTE9IjYzOC41ODk4IiB5Mj0iNjczLjU4OTgiLz48cG9seWdvbiBmaWxsPSIjMTgxODE4IiBwb2ludHM9IjE1OTEuNSw2NjMuNTg5OCwxNTk1LjUsNjczLjU4OTgsMTU5OS41LDY2My41ODk4LDE1OTUuNSw2NjcuNTg5OCIgc3R5bGU9InN0cm9rZTojMTgxODE4O3N0cm9rZS13aWR0aDoxOyIvPjxsaW5lIHN0eWxlPSJzdHJva2U6IzE4MTgxODtzdHJva2Utd2lkdGg6MTsiIHgxPSIyMjEwIiB4Mj0iMjIxMCIgeTE9IjQyNS4wMTU2IiB5Mj0iNDYwLjAxNTYiLz48cG9seWdvbiBmaWxsPSIjMTgxODE4IiBwb2ludHM9IjIyMDYsNDUwLjAxNTYsMjIxMCw0NjAuMDE1NiwyMjE0LDQ1MC4wMTU2LDIyMTAsNDU0LjAxNTYiIHN0eWxlPSJzdHJva2U6IzE4MTgxODtzdHJva2Utd2lkdGg6MTsiLz48bGluZSBzdHlsZT0ic3Ryb2tlOiMxODE4MTg7c3Ryb2tlLXdpZHRoOjE7IiB4MT0iMjAwNCIgeDI9IjIwMDQiIHkxPSI2ODkuNDc2NiIgeTI9IjcyNC40NzY2Ii8+PHBvbHlnb24gZmlsbD0iIzE4MTgxOCIgcG9pbnRzPSIyMDAwLDcxNC40NzY2LDIwMDQsNzI0LjQ3NjYsMjAwOCw3MTQuNDc2NiwyMDA0LDcxOC40NzY2IiBzdHlsZT0ic3Ryb2tlOiMxODE4MTg7c3Ryb2tlLXdpZHRoOjE7Ii8+PGxpbmUgc3R5bGU9InN0cm9rZTojMTgxODE4O3N0cm9rZS13aWR0aDoxOyIgeDE9IjIwMDQiIHgyPSIyMDA0IiB5MT0iNjMyLjYzMjgiIHkyPSI2NTYuNjMyOCIvPjxwb2x5Z29uIGZpbGw9IiMxODE4MTgiIHBvaW50cz0iMjAwMCw2NDYuNjMyOCwyMDA0LDY1Ni42MzI4LDIwMDgsNjQ2LjYzMjgsMjAwNCw2NTAuNjMyOCIgc3R5bGU9InN0cm9rZTojMTgxODE4O3N0cm9rZS13aWR0aDoxOyIvPjxsaW5lIHN0eWxlPSJzdHJva2U6IzE4MTgxODtzdHJva2Utd2lkdGg6MTsiIHgxPSIyMDYyLjc1IiB4Mj0iMjA4MSIgeTE9IjYyMC42MzI4IiB5Mj0iNjIwLjYzMjgiLz48cG9seWdvbiBmaWxsPSIjMTgxODE4IiBwb2ludHM9IjIwNzcsNjk2Ljk3NjYsMjA4MSw3MDYuOTc2NiwyMDg1LDY5Ni45NzY2LDIwODEsNzAwLjk3NjYiIHN0eWxlPSJzdHJva2U6IzE4MTgxODtzdHJva2Utd2lkdGg6MTsiLz48bGluZSBzdHlsZT0ic3Ryb2tlOiMxODE4MTg7c3Ryb2tlLXdpZHRoOjE7IiB4MT0iMjA4MSIgeDI9IjIwODEiIHkxPSI2MjAuNjMyOCIgeTI9Ijc5My4zMjAzIi8+PGxpbmUgc3R5bGU9InN0cm9rZTojMTgxODE4O3N0cm9rZS13aWR0aDoxOyIgeDE9IjIwODEiIHgyPSIyMDE2IiB5MT0iNzkzLjMyMDMiIHkyPSI3OTMuMzIwMyIvPjxwb2x5Z29uIGZpbGw9IiMxODE4MTgiIHBvaW50cz0iMjAyNiw3ODkuMzIwMywyMDE2LDc5My4zMjAzLDIwMjYsNzk3LjMyMDMsMjAyMiw3OTMuMzIwMyIgc3R5bGU9InN0cm9rZTojMTgxODE4O3N0cm9rZS13aWR0aDoxOyIvPjxsaW5lIHN0eWxlPSJzdHJva2U6IzE4MTgxODtzdHJva2Utd2lkdGg6MTsiIHgxPSIyMDA0IiB4Mj0iMjAwNCIgeTE9Ijc1Ny4zMjAzIiB5Mj0iNzgxLjMyMDMiLz48cG9seWdvbiBmaWxsPSIjMTgxODE4IiBwb2ludHM9IjIwMDAsNzcxLjMyMDMsMjAwNCw3ODEuMzIwMywyMDA4LDc3MS4zMjAzLDIwMDQsNzc1LjMyMDMiIHN0eWxlPSJzdHJva2U6IzE4MTgxODtzdHJva2Utd2lkdGg6MTsiLz48bGluZSBzdHlsZT0ic3Ryb2tlOiMxODE4MTg7c3Ryb2tlLXdpZHRoOjE7IiB4MT0iMjE5OSIgeDI9IjIxOTkiIHkxPSI2NzcuNzAzMSIgeTI9IjcxMi43MDMxIi8+PHBvbHlnb24gZmlsbD0iIzE4MTgxOCIgcG9pbnRzPSIyMTk1LDcwMi43MDMxLDIxOTksNzEyLjcwMzEsMjIwMyw3MDIuNzAzMSwyMTk5LDcwNi43MDMxIiBzdHlsZT0ic3Ryb2tlOiMxODE4MTg7c3Ryb2tlLXdpZHRoOjE7Ii8+PGxpbmUgc3R5bGU9InN0cm9rZTojMTgxODE4O3N0cm9rZS13aWR0aDoxOyIgeDE9IjIxOTkiIHgyPSIyMTk5IiB5MT0iNjIwLjg1OTQiIHkyPSI2NDQuODU5NCIvPjxwb2x5Z29uIGZpbGw9IiMxODE4MTgiIHBvaW50cz0iMjE5NSw2MzQuODU5NCwyMTk5LDY0NC44NTk0LDIyMDMsNjM0Ljg1OTQsMjE5OSw2MzguODU5NCIgc3R5bGU9InN0cm9rZTojMTgxODE4O3N0cm9rZS13aWR0aDoxOyIvPjxsaW5lIHN0eWxlPSJzdHJva2U6IzE4MTgxODtzdHJva2Utd2lkdGg6MTsiIHgxPSIyMjQ5LjUiIHgyPSIyMjk0IiB5MT0iNjA4Ljg1OTQiIHkyPSI2MDguODU5NCIvPjxwb2x5Z29uIGZpbGw9IiMxODE4MTgiIHBvaW50cz0iMjI5MCw2ODUuMjAzMSwyMjk0LDY5NS4yMDMxLDIyOTgsNjg1LjIwMzEsMjI5NCw2ODkuMjAzMSIgc3R5bGU9InN0cm9rZTojMTgxODE4O3N0cm9rZS13aWR0aDoxOyIvPjxsaW5lIHN0eWxlPSJzdHJva2U6IzE4MTgxODtzdHJva2Utd2lkdGg6MTsiIHgxPSIyMjk0IiB4Mj0iMjI5NCIgeTE9IjYwOC44NTk0IiB5Mj0iNzgxLjU0NjkiLz48bGluZSBzdHlsZT0ic3Ryb2tlOiMxODE4MTg7c3Ryb2tlLXdpZHRoOjE7IiB4MT0iMjI5NCIgeDI9IjIyMTEiIHkxPSI3ODEuNTQ2OSIgeTI9Ijc4MS41NDY5Ii8+PHBvbHlnb24gZmlsbD0iIzE4MTgxOCIgcG9pbnRzPSIyMjIxLDc3Ny41NDY5LDIyMTEsNzgxLjU0NjksMjIyMSw3ODUuNTQ2OSwyMjE3LDc4MS41NDY5IiBzdHlsZT0ic3Ryb2tlOiMxODE4MTg7c3Ryb2tlLXdpZHRoOjE7Ii8+PGxpbmUgc3R5bGU9InN0cm9rZTojMTgxODE4O3N0cm9rZS13aWR0aDoxOyIgeDE9IjIxOTkiIHgyPSIyMTk5IiB5MT0iNzQ1LjU0NjkiIHkyPSI3NjkuNTQ2OSIvPjxwb2x5Z29uIGZpbGw9IiMxODE4MTgiIHBvaW50cz0iMjE5NSw3NTkuNTQ2OSwyMTk5LDc2OS41NDY5LDIyMDMsNzU5LjU0NjksMjE5OSw3NjMuNTQ2OSIgc3R5bGU9InN0cm9rZTojMTgxODE4O3N0cm9rZS13aWR0aDoxOyIvPjxsaW5lIHN0eWxlPSJzdHJva2U6IzE4MTgxODtzdHJva2Utd2lkdGg6MTsiIHgxPSIyMzcyIiB4Mj0iMjM3MiIgeTE9IjY3Ny43MDMxIiB5Mj0iNzEyLjcwMzEiLz48cG9seWdvbiBmaWxsPSIjMTgxODE4IiBwb2ludHM9IjIzNjgsNzAyLjcwMzEsMjM3Miw3MTIuNzAzMSwyMzc2LDcwMi43MDMxLDIzNzIsNzA2LjcwMzEiIHN0eWxlPSJzdHJva2U6IzE4MTgxODtzdHJva2Utd2lkdGg6MTsiLz48bGluZSBzdHlsZT0ic3Ryb2tlOiMxODE4MTg7c3Ryb2tlLXdpZHRoOjE7IiB4MT0iMjM3MiIgeDI9IjIzNzIiIHkxPSI2MjAuODU5NCIgeTI9IjY0NC44NTk0Ii8+PHBvbHlnb24gZmlsbD0iIzE4MTgxOCIgcG9pbnRzPSIyMzY4LDYzNC44NTk0LDIzNzIsNjQ0Ljg1OTQsMjM3Niw2MzQuODU5NCwyMzcyLDYzOC44NTk0IiBzdHlsZT0ic3Ryb2tlOiMxODE4MTg7c3Ryb2tlLXdpZHRoOjE7Ii8+PGxpbmUgc3R5bGU9InN0cm9rZTojMTgxODE4O3N0cm9rZS13aWR0aDoxOyIgeDE9IjI0MjUuMjUiIHgyPSIyNDQ2IiB5MT0iNjA4Ljg1OTQiIHkyPSI2MDguODU5NCIvPjxwb2x5Z29uIGZpbGw9IiMxODE4MTgiIHBvaW50cz0iMjQ0Miw2ODUuMjAzMSwyNDQ2LDY5NS4yMDMxLDI0NTAsNjg1LjIwMzEsMjQ0Niw2ODkuMjAzMSIgc3R5bGU9InN0cm9rZTojMTgxODE4O3N0cm9rZS13aWR0aDoxOyIvPjxsaW5lIHN0eWxlPSJzdHJva2U6IzE4MTgxODtzdHJva2Utd2lkdGg6MTsiIHgxPSIyNDQ2IiB4Mj0iMjQ0NiIgeTE9IjYwOC44NTk0IiB5Mj0iNzgxLjU0NjkiLz48bGluZSBzdHlsZT0ic3Ryb2tlOiMxODE4MTg7c3Ryb2tlLXdpZHRoOjE7IiB4MT0iMjQ0NiIgeDI9IjIzODQiIHkxPSI3ODEuNTQ2OSIgeTI9Ijc4MS41NDY5Ii8+PHBvbHlnb24gZmlsbD0iIzE4MTgxOCIgcG9pbnRzPSIyMzk0LDc3Ny41NDY5LDIzODQsNzgxLjU0NjksMjM5NCw3ODUuNTQ2OSwyMzkwLDc4MS41NDY5IiBzdHlsZT0ic3Ryb2tlOiMxODE4MTg7c3Ryb2tlLXdpZHRoOjE7Ii8+PGxpbmUgc3R5bGU9InN0cm9rZTojMTgxODE4O3N0cm9rZS13aWR0aDoxOyIgeDE9IjIzNzIiIHgyPSIyMzcyIiB5MT0iNzQ1LjU0NjkiIHkyPSI3NjkuNTQ2OSIvPjxwb2x5Z29uIGZpbGw9IiMxODE4MTgiIHBvaW50cz0iMjM2OCw3NTkuNTQ2OSwyMzcyLDc2OS41NDY5LDIzNzYsNzU5LjU0NjksMjM3Miw3NjMuNTQ2OSIgc3R5bGU9InN0cm9rZTojMTgxODE4O3N0cm9rZS13aWR0aDoxOyIvPjxsaW5lIHN0eWxlPSJzdHJva2U6IzE4MTgxODtzdHJva2Utd2lkdGg6MTsiIHgxPSIyMDA0IiB4Mj0iMjAwNCIgeTE9IjU3Ni44NTk0IiB5Mj0iNjA4LjYzMjgiLz48cG9seWdvbiBmaWxsPSIjMTgxODE4IiBwb2ludHM9IjIwMDAsNTk4LjYzMjgsMjAwNCw2MDguNjMyOCwyMDA4LDU5OC42MzI4LDIwMDQsNjAyLjYzMjgiIHN0eWxlPSJzdHJva2U6IzE4MTgxODtzdHJva2Utd2lkdGg6MTsiLz48bGluZSBzdHlsZT0ic3Ryb2tlOiMxODE4MTg7c3Ryb2tlLXdpZHRoOjE7IiB4MT0iMjAwNCIgeDI9IjIwMDQiIHkxPSI4MDUuMzIwMyIgeTI9Ijg3Ny4xNjQxIi8+PHBvbHlnb24gZmlsbD0iIzE4MTgxOCIgcG9pbnRzPSIyMDAwLDg2Ny4xNjQxLDIwMDQsODc3LjE2NDEsMjAwOCw4NjcuMTY0MSwyMDA0LDg3MS4xNjQxIiBzdHlsZT0ic3Ryb2tlOiMxODE4MTg7c3Ryb2tlLXdpZHRoOjE7Ii8+PGxpbmUgc3R5bGU9InN0cm9rZTojMTgxODE4O3N0cm9rZS13aWR0aDoxOyIgeDE9IjIxOTkiIHgyPSIyMTk5IiB5MT0iNTc2Ljg1OTQiIHkyPSI1OTYuODU5NCIvPjxwb2x5Z29uIGZpbGw9IiMxODE4MTgiIHBvaW50cz0iMjE5NSw1ODYuODU5NCwyMTk5LDU5Ni44NTk0LDIyMDMsNTg2Ljg1OTQsMjE5OSw1OTAuODU5NCIgc3R5bGU9InN0cm9rZTojMTgxODE4O3N0cm9rZS13aWR0aDoxOyIvPjxsaW5lIHN0eWxlPSJzdHJva2U6IzE4MTgxODtzdHJva2Utd2lkdGg6MTsiIHgxPSIyMTk5IiB4Mj0iMjE5OSIgeTE9Ijc5My41NDY5IiB5Mj0iODc3LjE2NDEiLz48cG9seWdvbiBmaWxsPSIjMTgxODE4IiBwb2ludHM9IjIxOTUsODY3LjE2NDEsMjE5OSw4NzcuMTY0MSwyMjAzLDg2Ny4xNjQxLDIxOTksODcxLjE2NDEiIHN0eWxlPSJzdHJva2U6IzE4MTgxODtzdHJva2Utd2lkdGg6MTsiLz48bGluZSBzdHlsZT0ic3Ryb2tlOiMxODE4MTg7c3Ryb2tlLXdpZHRoOjE7IiB4MT0iMjM3MiIgeDI9IjIzNzIiIHkxPSI1NzYuODU5NCIgeTI9IjU5Ni44NTk0Ii8+PHBvbHlnb24gZmlsbD0iIzE4MTgxOCIgcG9pbnRzPSIyMzY4LDU4Ni44NTk0LDIzNzIsNTk2Ljg1OTQsMjM3Niw1ODYuODU5NCwyMzcyLDU5MC44NTk0IiBzdHlsZT0ic3Ryb2tlOiMxODE4MTg7c3Ryb2tlLXdpZHRoOjE7Ii8+PGxpbmUgc3R5bGU9InN0cm9rZTojMTgxODE4O3N0cm9rZS13aWR0aDoxOyIgeDE9IjIzNzIiIHgyPSIyMzcyIiB5MT0iNzkzLjU0NjkiIHkyPSI4NzcuMTY0MSIvPjxwb2x5Z29uIGZpbGw9IiMxODE4MTgiIHBvaW50cz0iMjM2OCw4NjcuMTY0MSwyMzcyLDg3Ny4xNjQxLDIzNzYsODY3LjE2NDEsMjM3Miw4NzEuMTY0MSIgc3R5bGU9InN0cm9rZTojMTgxODE4O3N0cm9rZS13aWR0aDoxOyIvPjxsaW5lIHN0eWxlPSJzdHJva2U6IzE4MTgxODtzdHJva2Utd2lkdGg6MTsiIHgxPSIyMTA0IiB4Mj0iMjE3My4yNSIgeTE9IjU2NC44NTk0IiB5Mj0iNTY0Ljg1OTQiLz48cG9seWdvbiBmaWxsPSIjMTgxODE4IiBwb2ludHM9IjIxNjMuMjUsNTYwLjg1OTQsMjE3My4yNSw1NjQuODU5NCwyMTYzLjI1LDU2OC44NTk0LDIxNjcuMjUsNTY0Ljg1OTQiIHN0eWxlPSJzdHJva2U6IzE4MTgxODtzdHJva2Utd2lkdGg6MTsiLz48bGluZSBzdHlsZT0ic3Ryb2tlOiMxODE4MTg7c3Ryb2tlLXdpZHRoOjE7IiB4MT0iMjIyNC43NSIgeDI9IjIzNDMuNSIgeTE9IjU2NC44NTk0IiB5Mj0iNTY0Ljg1OTQiLz48cG9seWdvbiBmaWxsPSIjMTgxODE4IiBwb2ludHM9IjIzMzMuNSw1NjAuODU5NCwyMzQzLjUsNTY0Ljg1OTQsMjMzMy41LDU2OC44NTk0LDIzMzcuNSw1NjQuODU5NCIgc3R5bGU9InN0cm9rZTojMTgxODE4O3N0cm9rZS13aWR0aDoxOyIvPjxsaW5lIHN0eWxlPSJzdHJva2U6IzE4MTgxODtzdHJva2Utd2lkdGg6MTsiIHgxPSIyMjEwIiB4Mj0iMjIxMCIgeTE9IjQ5Mi44NTk0IiB5Mj0iNTI3Ljg1OTQiLz48bGluZSBzdHlsZT0ic3Ryb2tlOiMxODE4MTg7c3Ryb2tlLXdpZHRoOjE7IiB4MT0iMjIxMCIgeDI9IjIwMDQiIHkxPSI1MjcuODU5NCIgeTI9IjUyNy44NTk0Ii8+PGxpbmUgc3R5bGU9InN0cm9rZTojMTgxODE4O3N0cm9rZS13aWR0aDoxOyIgeDE9IjIwMDQiIHgyPSIyMDA0IiB5MT0iNTI3Ljg1OTQiIHkyPSI1NTIuODU5NCIvPjxwb2x5Z29uIGZpbGw9IiMxODE4MTgiIHBvaW50cz0iMjAwMCw1NDIuODU5NCwyMDA0LDU1Mi44NTk0LDIwMDgsNTQyLjg1OTQsMjAwNCw1NDYuODU5NCIgc3R5bGU9InN0cm9rZTojMTgxODE4O3N0cm9rZS13aWR0aDoxOyIvPjxsaW5lIHN0eWxlPSJzdHJva2U6IzE4MTgxODtzdHJva2Utd2lkdGg6MTsiIHgxPSIyNDAwLjUiIHgyPSIyNDY0IiB5MT0iNTY0Ljg1OTQiIHkyPSI1NjQuODU5NCIvPjxsaW5lIHN0eWxlPSJzdHJva2U6IzE4MTgxODtzdHJva2Utd2lkdGg6MTsiIHgxPSIyNDY0IiB4Mj0iMjQ2NCIgeTE9IjU2NC44NTk0IiB5Mj0iODc3LjE2NDEiLz48cG9seWdvbiBmaWxsPSIjMTgxODE4IiBwb2ludHM9IjI0NjAsODY3LjE2NDEsMjQ2NCw4NzcuMTY0MSwyNDY4LDg2Ny4xNjQxLDI0NjQsODcxLjE2NDEiIHN0eWxlPSJzdHJva2U6IzE4MTgxODtzdHJva2Utd2lkdGg6MTsiLz48bGluZSBzdHlsZT0ic3Ryb2tlOiMxODE4MTg7c3Ryb2tlLXdpZHRoOjE7IiB4MT0iMjAwNCIgeDI9IjI0NjQiIHkxPSI4NzcuMTY0MSIgeTI9Ijg3Ny4xNjQxIi8+PGxpbmUgc3R5bGU9InN0cm9rZTojMTgxODE4O3N0cm9rZS13aWR0aDoxOyIgeDE9IjIyMTAiIHgyPSIyMjEwIiB5MT0iODc3LjE2NDEiIHkyPSI5MTcuMTY0MSIvPjxwb2x5Z29uIGZpbGw9IiMxODE4MTgiIHBvaW50cz0iMjIwNiw5MDcuMTY0MSwyMjEwLDkxNy4xNjQxLDIyMTQsOTA3LjE2NDEsMjIxMCw5MTEuMTY0MSIgc3R5bGU9InN0cm9rZTojMTgxODE4O3N0cm9rZS13aWR0aDoxOyIvPjxsaW5lIHN0eWxlPSJzdHJva2U6IzE4MTgxODtzdHJva2Utd2lkdGg6MTsiIHgxPSIxODgzIiB4Mj0iMTg4MyIgeTE9IjkyMy4xNjQxIiB5Mj0iOTQzLjE2NDEiLz48cG9seWdvbiBmaWxsPSIjMTgxODE4IiBwb2ludHM9IjE4NzksOTMzLjE2NDEsMTg4Myw5NDMuMTY0MSwxODg3LDkzMy4xNjQxLDE4ODMsOTM3LjE2NDEiIHN0eWxlPSJzdHJva2U6IzE4MTgxODtzdHJva2Utd2lkdGg6MTsiLz48bGluZSBzdHlsZT0ic3Ryb2tlOiMxODE4MTg7c3Ryb2tlLXdpZHRoOjE7IiB4MT0iMjgiIHgyPSIyOCIgeTE9IjMyMC4zMjgxIiB5Mj0iMzI0LjMyODEiLz48bGluZSBzdHlsZT0ic3Ryb2tlOiMxODE4MTg7c3Ryb2tlLXdpZHRoOjE7IiB4MT0iMjgiIHgyPSI0ODYiIHkxPSIzMjQuMzI4MSIgeTI9IjMyNC4zMjgxIi8+PGxpbmUgc3R5bGU9InN0cm9rZTojMTgxODE4O3N0cm9rZS13aWR0aDoxOyIgeDE9IjQ4NiIgeDI9IjQ4NiIgeTE9IjMyNC4zMjgxIiB5Mj0iNDM2LjEzNjciLz48cG9seWdvbiBmaWxsPSIjMTgxODE4IiBwb2ludHM9IjQ4Miw0MjYuMTM2Nyw0ODYsNDM2LjEzNjcsNDkwLDQyNi4xMzY3LDQ4Niw0MzAuMTM2NyIgc3R5bGU9InN0cm9rZTojMTgxODE4O3N0cm9rZS13aWR0aDoxOyIvPjxsaW5lIHN0eWxlPSJzdHJva2U6IzE4MTgxODtzdHJva2Utd2lkdGg6MTsiIHgxPSIyOCIgeDI9IjI4IiB5MT0iMzIwLjMyODEiIHkyPSIzMjQuMzI4MSIvPjxsaW5lIHN0eWxlPSJzdHJva2U6IzE4MTgxODtzdHJva2Utd2lkdGg6MTsiIHgxPSIyOCIgeDI9IjEwMjMiIHkxPSIzMjQuMzI4MSIgeTI9IjMyNC4zMjgxIi8+PGxpbmUgc3R5bGU9InN0cm9rZTojMTgxODE4O3N0cm9rZS13aWR0aDoxOyIgeDE9IjEwMjMiIHgyPSIxMDIzIiB5MT0iMzI0LjMyODEiIHkyPSIzNDAuMzI4MSIvPjxwb2x5Z29uIGZpbGw9IiMxODE4MTgiIHBvaW50cz0iMTAxOSwzMzAuMzI4MSwxMDIzLDM0MC4zMjgxLDEwMjcsMzMwLjMyODEsMTAyMywzMzQuMzI4MSIgc3R5bGU9InN0cm9rZTojMTgxODE4O3N0cm9rZS13aWR0aDoxOyIvPjxsaW5lIHN0eWxlPSJzdHJva2U6IzE4MTgxODtzdHJva2Utd2lkdGg6MTsiIHgxPSIyOTQiIHgyPSIyOTQiIHkxPSIzMjAuMzI4MSIgeTI9IjMyNC4zMjgxIi8+PGxpbmUgc3R5bGU9InN0cm9rZTojMTgxODE4O3N0cm9rZS13aWR0aDoxOyIgeDE9IjI5NCIgeDI9IjE1OTUuNSIgeTE9IjMyNC4zMjgxIiB5Mj0iMzI0LjMyODEiLz48bGluZSBzdHlsZT0ic3Ryb2tlOiMxODE4MTg7c3Ryb2tlLXdpZHRoOjE7IiB4MT0iMTU5NS41IiB4Mj0iMTU5NS41IiB5MT0iMzI0LjMyODEiIHkyPSI0NzAuMDU4NiIvPjxwb2x5Z29uIGZpbGw9IiMxODE4MTgiIHBvaW50cz0iMTU5MS41LDQ2MC4wNTg2LDE1OTUuNSw0NzAuMDU4NiwxNTk5LjUsNDYwLjA1ODYsMTU5NS41LDQ2NC4wNTg2IiBzdHlsZT0ic3Ryb2tlOiMxODE4MTg7c3Ryb2tlLXdpZHRoOjE7Ii8+PGxpbmUgc3R5bGU9InN0cm9rZTojMTgxODE4O3N0cm9rZS13aWR0aDoxOyIgeDE9IjI5NCIgeDI9IjI5NCIgeTE9IjMyMC4zMjgxIiB5Mj0iMzI0LjMyODEiLz48bGluZSBzdHlsZT0ic3Ryb2tlOiMxODE4MTg7c3Ryb2tlLXdpZHRoOjE7IiB4MT0iMjk0IiB4Mj0iMjIxMCIgeTE9IjMyNC4zMjgxIiB5Mj0iMzI0LjMyODEiLz48bGluZSBzdHlsZT0ic3Ryb2tlOiMxODE4MTg7c3Ryb2tlLXdpZHRoOjE7IiB4MT0iMjIxMCIgeDI9IjIyMTAiIHkxPSIzMjQuMzI4MSIgeTI9IjM5Mi4xNzE5Ii8+PHBvbHlnb24gZmlsbD0iIzE4MTgxOCIgcG9pbnRzPSIyMjA2LDM4Mi4xNzE5LDIyMTAsMzkyLjE3MTksMjIxNCwzODIuMTcxOSwyMjEwLDM4Ni4xNzE5IiBzdHlsZT0ic3Ryb2tlOiMxODE4MTg7c3Ryb2tlLXdpZHRoOjE7Ii8+PGxpbmUgc3R5bGU9InN0cm9rZTojMTgxODE4O3N0cm9rZS13aWR0aDoxOyIgeDE9IjQ4NiIgeDI9IjQ4NiIgeTE9IjgzNi4zNTU1IiB5Mj0iOTAzLjE2NDEiLz48bGluZSBzdHlsZT0ic3Ryb2tlOiMxODE4MTg7c3Ryb2tlLXdpZHRoOjE7IiB4MT0iNDg2IiB4Mj0iMTg2NyIgeTE9IjkwMy4xNjQxIiB5Mj0iOTAzLjE2NDEiLz48bGluZSBzdHlsZT0ic3Ryb2tlOiMxODE4MTg7c3Ryb2tlLXdpZHRoOjE7IiB4MT0iMTg2NyIgeDI9IjE4NjciIHkxPSI5MDMuMTY0MSIgeTI9IjkxNy4xNjQxIi8+PHBvbHlnb24gZmlsbD0iIzE4MTgxOCIgcG9pbnRzPSIxODYzLDkwNy4xNjQxLDE4NjcsOTE3LjE2NDEsMTg3MSw5MDcuMTY0MSwxODY3LDkxMS4xNjQxIiBzdHlsZT0ic3Ryb2tlOiMxODE4MTg7c3Ryb2tlLXdpZHRoOjE7Ii8+PGxpbmUgc3R5bGU9InN0cm9rZTojMTgxODE4O3N0cm9rZS13aWR0aDoxOyIgeDE9IjEwMjMiIHgyPSIxMDIzIiB5MT0iODk3LjE2NDEiIHkyPSI5MDMuMTY0MSIvPjxsaW5lIHN0eWxlPSJzdHJva2U6IzE4MTgxODtzdHJva2Utd2lkdGg6MTsiIHgxPSIxMDIzIiB4Mj0iMTg2NyIgeTE9IjkwMy4xNjQxIiB5Mj0iOTAzLjE2NDEiLz48bGluZSBzdHlsZT0ic3Ryb2tlOiMxODE4MTg7c3Ryb2tlLXdpZHRoOjE7IiB4MT0iMTg2NyIgeDI9IjE4NjciIHkxPSI5MDMuMTY0MSIgeTI9IjkxNy4xNjQxIi8+PHBvbHlnb24gZmlsbD0iIzE4MTgxOCIgcG9pbnRzPSIxODYzLDkwNy4xNjQxLDE4NjcsOTE3LjE2NDEsMTg3MSw5MDcuMTY0MSwxODY3LDkxMS4xNjQxIiBzdHlsZT0ic3Ryb2tlOiMxODE4MTg7c3Ryb2tlLXdpZHRoOjE7Ii8+PGxpbmUgc3R5bGU9InN0cm9rZTojMTgxODE4O3N0cm9rZS13aWR0aDoxOyIgeDE9IjE1OTUuNSIgeDI9IjE1OTUuNSIgeTE9IjgwMi40MzM2IiB5Mj0iOTAzLjE2NDEiLz48bGluZSBzdHlsZT0ic3Ryb2tlOiMxODE4MTg7c3Ryb2tlLXdpZHRoOjE7IiB4MT0iMTU5NS41IiB4Mj0iMTg5OSIgeTE9IjkwMy4xNjQxIiB5Mj0iOTAzLjE2NDEiLz48bGluZSBzdHlsZT0ic3Ryb2tlOiMxODE4MTg7c3Ryb2tlLXdpZHRoOjE7IiB4MT0iMTg5OSIgeDI9IjE4OTkiIHkxPSI5MDMuMTY0MSIgeTI9IjkxNy4xNjQxIi8+PHBvbHlnb24gZmlsbD0iIzE4MTgxOCIgcG9pbnRzPSIxODk1LDkwNy4xNjQxLDE4OTksOTE3LjE2NDEsMTkwMyw5MDcuMTY0MSwxODk5LDkxMS4xNjQxIiBzdHlsZT0ic3Ryb2tlOiMxODE4MTg7c3Ryb2tlLXdpZHRoOjE7Ii8+PHRleHQgZmlsbD0iIzAwMDAwMCIgZm9udC1mYW1pbHk9InNhbnMtc2VyaWYiIGZvbnQtc2l6ZT0iMjIiIGZvbnQtd2VpZ2h0PSJib2xkIiBsZW5ndGhBZGp1c3Q9InNwYWNpbmciIHRleHRMZW5ndGg9IjE0MyIgeD0iODguNSIgeT0iMzIuMDQ2OSI+QWRtaW4gTG9naW4gPTwvdGV4dD48dGV4dCBmaWxsPSIjMDAwMDAwIiBmb250LWZhbWlseT0ic2Fucy1zZXJpZiIgZm9udC1zaXplPSIyMiIgZm9udC13ZWlnaHQ9ImJvbGQiIGxlbmd0aEFkanVzdD0ic3BhY2luZyIgdGV4dExlbmd0aD0iMzA4IiB4PSIzMzEiIHk9IjMyLjA0NjkiPk1vbml0b3IgQm9vayYjODIwOTtFeGNoYW5nZSBLUElzID08L3RleHQ+PHRleHQgZmlsbD0iIzAwMDAwMCIgZm9udC1mYW1pbHk9InNhbnMtc2VyaWYiIGZvbnQtc2l6ZT0iMjIiIGZvbnQtd2VpZ2h0PSJib2xkIiBsZW5ndGhBZGp1c3Q9InNwYWNpbmciIHRleHRMZW5ndGg9IjI1MyIgeD0iODg2IiB5PSIzMi4wNDY5Ij5NYW5hZ2UgQWNhZGVtaWMgU3RhZmYgPTwvdGV4dD48dGV4dCBmaWxsPSIjMDAwMDAwIiBmb250LWZhbWlseT0ic2Fucy1zZXJpZiIgZm9udC1zaXplPSIyMiIgZm9udC13ZWlnaHQ9ImJvbGQiIGxlbmd0aEFkanVzdD0ic3BhY2luZyIgdGV4dExlbmd0aD0iNDg0IiB4PSIxMzY1IiB5PSIzMi4wNDY5Ij5NYW5hZ2UgRGVwYXJ0bWVudHMgLyBNYWpvciBCb29rcyAmYW1wOyBDb3Vyc2VzID08L3RleHQ+PHRleHQgZmlsbD0iIzAwMDAwMCIgZm9udC1mYW1pbHk9InNhbnMtc2VyaWYiIGZvbnQtc2l6ZT0iMjIiIGZvbnQtd2VpZ2h0PSJib2xkIiBsZW5ndGhBZGp1c3Q9InNwYWNpbmciIHRleHRMZW5ndGg9IjI0MiIgeD0iMjA0OCIgeT0iMzIuMDQ2OSI+TWFuYWdlIFVzZXJzICZhbXA7IFJvbGVzID08L3RleHQ+PCEtLVNSQz1bZExMRFJuZW40QnRsaG5aajhHQWY0TlRHNllLWGJROGNRV0hBeGlRVTFIVWxQc0tSUUFHUy1YVnc1X2pCRWhQdFdHMURGb3VXWlB5enhwc195UnZVbTlNZ2pPTHhjbEZsbk1sWFd0Mlg2RU9nc2UzRTB6UDI2cFkzSGRZXzhRVDZuVjFQNkFyNEc5MEU1U0VxQzd2S3cwZndEeGkyaDJGZ2lXelhXSFB3Qi1aeDFTMW1CRm5ZSFlBVVd5T1p6MnBia2xRRDRJekdQWjhMRHFMTFpkWjkxc2VBajRmTkhMNkhNdEJmekc4VW9FZjAzZ3c5YlotX194Wno5WFYycFg0LUZ6eHZBOE1GZDYxbTZqUzhzMnNvbGsyWEQtQ3o3a1B3cFNHNjRDR29fSlVuWHZ0dEh0Y2xMVVkwenBkVVNIUUYxU2NpVkxnVEJjVzNYbFUzd2tIMDgxM0hqbVk4TGVvVERlUVBBVGZPYTRSQnZRNE5WRDB6MkdLQUdyOEIzWGpvMExXYVUzR2UwelZnQTRBRUNobXBBR0RaQ1ZpSVJHNG41emdzdldXaE1Fd0w1MGZoQk00UUg1TXJoZHAyODFWSDJRdU94U0RFSzEwcFdxMUxOa25xTkNjV1lIS2lvQUV6dkNHZXprZk13UzFfT3NPUGk5RjVJd3NpQi1tYmIxNlFFZlRIS2pyZ3M4UGRMdWpqZGEtYjlNc3VpbnhQNU9rUmJoTDNjTkJPaGEtbVNrV05jTndreFlTaE9QOC1UOHdTUm43OWp1b0N4UUVXRC1JSm1adHNxNmlTTGRvYmdGZzdJZEF3c2ZFN0pxcWc3ZEN6UGpmclJ0dFNjZDUzampCU0t3TndJTFNjTURDUV96d0hKa3p4VUhiWm10NmxVTzB6Ti13My1EaEVMbm8wNnJldlp6cmVKTEN5ZUt1R1JmRDJiQzh5UV80b3VxVnhpbnFzYjNkbjNBUHBGdEo3emotY3hQc085Sk5kdm56UHl1ZWxjTjYzWTFmYTNGWkxaNlVrQ2hKbkszY2dlSm12Mi1NVmg3Wm95VXF4V21jUGhVV3lFVHBMN0duRUFjdER0ZlZubzFJOFFHdFdzZjFTN2VyQ2t4d3gtTXUzbG9SZjVKdnZ6c3QyS2JqN3RITHRSQ2g4NkxPOWFyX0d1eFdkRGlUdmN5Tm9vUFBKM0JiVlY0OU54NFo2ZVpoZTdOdGhiZHhKLV9fM2RXTl9PelJ2NXo5ZGV1V1ZhYnkwXS0tPjwvZz48L3N2Zz4=;" vertex="1" parent="1">
            <mxGeometry x="-840" y="-50" width="2505" height="977" as="geometry" />
          </mxCell>
        </UserObject>
      </root>
    </mxGraphModel>
  </diagram>
</mxfile>
